<svg width="62" height="58" viewBox="0 0 62 58" fill="none" xmlns="http://www.w3.org/2000/svg">
<path d="M22.5455 19.3333H28.1818V35.9048H22.5455V19.3333ZM33.8182 0H16.9091V5.52381H33.8182V0ZM45.1755 17.6486C48.7717 22.0435 50.7302 27.5093 50.7273 33.1429C50.7273 46.8695 39.4545 58 25.3636 58C18.6368 58 12.1854 55.3811 7.42884 50.7195C2.67223 46.0579 0 39.7354 0 33.1429C0 26.5503 2.67223 20.2278 7.42884 15.5662C12.1854 10.9046 18.6368 8.28571 25.3636 8.28571C31.3382 8.28571 36.8336 10.3295 41.2018 13.8095L45.2036 9.83238C46.6409 11.0476 47.9091 12.3181 49.1773 13.7267L45.1755 17.6486ZM45.0909 33.1429C45.0909 22.4543 36.27 13.8095 25.3636 13.8095C14.4573 13.8095 5.63636 22.4543 5.63636 33.1429C5.63636 43.8314 14.4573 52.4762 25.3636 52.4762C36.27 52.4762 45.0909 43.8314 45.0909 33.1429ZM56.3636 16.5714V33.1429H62V16.5714H56.3636ZM56.3636 44.1905H62V38.6667H56.3636V44.1905Z" fill="#DFD049"/>
</svg>
