<svg width="87" height="51" viewBox="0 0 87 51" fill="none" xmlns="http://www.w3.org/2000/svg">
<rect x="18.5" y="4.5" width="36" height="34" stroke="#E59E53" stroke-width="5"/>
<path d="M67.9429 20.1277L57.0001 6" stroke="#E59E53" stroke-width="5" stroke-linecap="square"/>
<path d="M16.4028 5.4646L6 20" stroke="#E59E53" stroke-width="5" stroke-linecap="square"/>
<path d="M36.5002 30.75C37.6795 30.75 38.6356 29.7939 38.6356 28.6146C38.6356 27.4352 37.6795 26.4792 36.5002 26.4792C35.3208 26.4792 34.3647 27.4352 34.3647 28.6146C34.3647 29.7939 35.3208 30.75 36.5002 30.75Z" fill="#E59E53"/>
<path d="M34.7915 10.25H38.2082V23.9167H34.7915V10.25Z" fill="#E59E53"/>
<path d="M36.5002 30.75C37.6795 30.75 38.6356 29.7939 38.6356 28.6146C38.6356 27.4352 37.6795 26.4792 36.5002 26.4792C35.3208 26.4792 34.3647 27.4352 34.3647 28.6146C34.3647 29.7939 35.3208 30.75 36.5002 30.75Z" fill="#E59E53"/>
<path d="M34.7915 10.25H38.2082V23.9167H34.7915V10.25Z" fill="#E59E53"/>
</svg>
