<svg width="163" height="155" viewBox="0 0 163 155" fill="none" xmlns="http://www.w3.org/2000/svg">
<path d="M90.1331 33.981C68.5472 34.2848 51.0032 51.9853 50.8467 73.5712C50.8005 79.5713 52.1125 85.5041 54.6844 90.9252C57.2562 96.3463 61.0213 101.115 65.6976 104.875C67.3292 106.212 68.5381 107.993 69.1779 110.003L71.0193 115.698H110.37L112.253 109.888C112.88 107.937 114.061 106.21 115.65 104.917C122.122 99.7191 126.81 92.6305 129.059 84.6403C131.308 76.6501 131.005 68.1571 128.194 60.3469C125.383 52.5368 120.204 45.7993 113.379 41.075C106.554 36.3507 98.4236 33.8755 90.1239 33.9948L90.1331 33.981Z" fill="white"/>
<mask id="mask0_767_757" style="mask-type:luminance" maskUnits="userSpaceOnUse" x="50" y="34" width="81" height="83">
<path d="M90.1331 34.897C68.5472 35.2008 51.0032 52.9013 50.8467 74.4872C50.8006 80.4873 52.1126 86.4201 54.6844 91.8412C57.2563 97.2624 61.0213 102.031 65.6976 105.791C67.3293 107.128 68.5382 108.909 69.1779 110.919L71.0193 116.614H110.37L112.253 110.804C112.88 108.853 114.061 107.126 115.65 105.833C122.122 100.635 126.81 93.5465 129.059 85.5563C131.308 77.5661 131.005 69.0731 128.194 61.2629C125.383 53.4528 120.204 46.7153 113.379 41.991C106.554 37.2667 98.4237 34.7915 90.1239 34.9108L90.1331 34.897Z" fill="white"/>
</mask>
<g mask="url(#mask0_767_757)">
<path d="M81.0044 113.318C81.0274 114.317 81.0044 114.883 81.0044 114.883" stroke="#263238" stroke-linecap="round" stroke-linejoin="round"/>
<path d="M80.0376 101.123C80.5302 104.741 80.7788 108.051 80.9031 110.519" stroke="#263238" stroke-linecap="round" stroke-linejoin="round"/>
<path d="M76.4883 80.8909H73.6893C76.5849 85.278 78.3343 91.3224 79.3931 97.1044" stroke="#263238" stroke-linecap="round" stroke-linejoin="round"/>
<path d="M82.0585 79.7444L81.7317 80.8907H77.432" stroke="#263238" stroke-linecap="round" stroke-linejoin="round"/>
<path d="M85.1336 82.9991L84.7608 84.2605L82.6109 77.8018L82.2703 78.9941" stroke="#263238" stroke-linecap="round" stroke-linejoin="round"/>
<path d="M89.5761 81.4754L88.7245 84.2605L86.6575 77.8018L85.5481 81.5859" stroke="#263238" stroke-linecap="round" stroke-linejoin="round"/>
<path d="M95.6113 80.7434L94.7505 77.8018L92.6835 84.2605L90.704 77.8018L90.1239 79.6938" stroke="#263238" stroke-linecap="round" stroke-linejoin="round"/>
<path d="M100.947 80.8907H99.6716L98.7969 77.8018L96.6425 84.2605L95.9658 81.9449" stroke="#263238" stroke-linecap="round" stroke-linejoin="round"/>
<path d="M102.618 94.1214C103.704 89.3015 105.315 84.523 107.714 80.8909H102.282" stroke="#263238" stroke-linecap="round" stroke-linejoin="round"/>
<path d="M101.444 100.525C101.665 98.9732 101.936 97.3666 102.259 95.7554" stroke="#263238" stroke-linecap="round" stroke-linejoin="round"/>
<path d="M100.648 108.121C100.763 106.5 100.928 104.673 101.163 102.721" stroke="#263238" stroke-linecap="round" stroke-linejoin="round"/>
<path d="M100.454 111.596C100.454 111.173 100.496 110.712 100.519 110.215" stroke="#263238" stroke-linecap="round" stroke-linejoin="round"/>
<path d="M100.385 114.883C100.385 114.883 100.385 114.128 100.413 112.825" stroke="#263238" stroke-linecap="round" stroke-linejoin="round"/>
<path opacity="0.2" d="M90.1331 34.897C68.5472 35.2008 51.0032 52.9013 50.8467 74.4872C50.8006 80.4873 52.1126 86.4201 54.6844 91.8412C57.2563 97.2624 61.0213 102.031 65.6976 105.791C67.3293 107.128 68.5382 108.909 69.1779 110.919L71.0193 116.614H110.37L112.253 110.804C112.88 108.853 114.061 107.126 115.65 105.833C122.122 100.635 126.81 93.5465 129.059 85.5563C131.308 77.5661 131.005 69.0731 128.194 61.2629C125.383 53.4528 120.204 46.7153 113.379 41.991C106.554 37.2667 98.4237 34.7915 90.1239 34.9108L90.1331 34.897ZM90.7039 100.129C84.6686 100.13 78.7686 98.3407 73.7501 94.9882C68.7316 91.6356 64.8201 86.87 62.5103 81.2942C60.2004 75.7184 59.5961 69.5828 60.7736 63.6635C61.9512 57.7442 64.8577 52.307 69.1256 48.0397C73.3936 43.7725 78.8312 40.8667 84.7507 39.6901C90.6702 38.5134 96.8056 39.1187 102.381 41.4294C107.957 43.74 112.722 47.6523 116.073 52.6713C119.425 57.6903 121.213 63.5906 121.211 69.6259C121.21 77.7162 117.995 85.4747 112.274 91.195C106.553 96.9152 98.7942 100.129 90.7039 100.129Z" fill="#E6C451"/>
</g>
<path d="M90.1331 33.981C68.5472 34.2848 51.0032 51.9853 50.8467 73.5712C50.8005 79.5713 52.1125 85.5041 54.6844 90.9252C57.2562 96.3463 61.0213 101.115 65.6976 104.875C67.3292 106.212 68.5381 107.993 69.1779 110.003L71.0193 115.698H110.37L112.253 109.888C112.88 107.937 114.061 106.21 115.65 104.917C122.122 99.7191 126.81 92.6305 129.059 84.6403C131.308 76.6501 131.005 68.1571 128.194 60.3469C125.383 52.5368 120.204 45.7993 113.379 41.075C106.554 36.3507 98.4236 33.8755 90.1239 33.9948L90.1331 33.981Z" stroke="#263238" stroke-linecap="round" stroke-linejoin="round"/>
<path d="M95.3119 153.999H86.1049C85.8765 153.999 85.6522 153.939 85.4548 153.824C85.2575 153.709 85.0942 153.544 84.9816 153.345L83.6006 150.915L78.2743 147.826H103.193L97.8714 150.915L96.4904 153.345C96.3722 153.551 96.2 153.721 95.9922 153.836C95.7845 153.952 95.5493 154.008 95.3119 153.999Z" fill="#263238" stroke="#263238" stroke-linecap="round" stroke-linejoin="round"/>
<path d="M105.615 145.994H75.7932C76.3212 147.095 77.1497 148.026 78.1833 148.677C79.2168 149.329 80.4133 149.675 81.635 149.676H99.7683C100.991 149.675 102.188 149.328 103.222 148.677C104.256 148.025 105.085 147.095 105.615 145.994Z" fill="#757575" stroke="#263238" stroke-linecap="round" stroke-linejoin="round"/>
<path d="M105.615 145.994H75.793L72.2437 120.72H109.164L105.615 145.994Z" fill="#999999"/>
<mask id="mask1_767_757" style="mask-type:luminance" maskUnits="userSpaceOnUse" x="72" y="120" width="38" height="26">
<path d="M105.615 145.994H75.793L72.2437 120.72H109.164L105.615 145.994Z" fill="white"/>
</mask>
<g mask="url(#mask1_767_757)">
<path opacity="0.4" d="M77.3214 137.68L77.6483 140.575L103.985 138.536L104.321 135.534L77.3214 137.68Z" fill="white"/>
<path opacity="0.4" d="M87.242 145.128H100.984C101.426 145.127 101.861 145.01 102.244 144.788C102.627 144.565 102.945 144.246 103.166 143.862L87.242 145.128Z" fill="white"/>
<path opacity="0.4" d="M77.7863 141.804L77.906 142.886C77.983 143.541 78.3136 144.139 78.8267 144.553L103.534 142.638L103.861 139.733L77.7863 141.804Z" fill="white"/>
<path opacity="0.4" d="M104.919 130.227L105.021 129.315H90.469H89.8706H76.3869L76.7322 132.413L104.919 130.227Z" fill="white"/>
<path opacity="0.4" d="M76.8703 133.643L77.1879 136.446L104.459 134.333L104.781 131.428L76.8703 133.643Z" fill="white"/>
</g>
<path d="M105.615 145.994H75.793L72.2437 120.72H109.164L105.615 145.994Z" stroke="#263238" stroke-linecap="round" stroke-linejoin="round"/>
<path d="M73.6755 133.256C73.3935 133.266 73.1189 133.164 72.9121 132.972C72.7054 132.78 72.5834 132.513 72.573 132.231C72.5626 131.949 72.6647 131.675 72.8568 131.468C73.0489 131.261 73.3152 131.139 73.5973 131.129L107.663 128.611C107.945 128.59 108.223 128.682 108.437 128.866C108.65 129.051 108.782 129.312 108.803 129.594C108.823 129.875 108.732 130.153 108.547 130.367C108.363 130.581 108.101 130.712 107.82 130.733L73.7538 133.251L73.6755 133.256Z" fill="#BFBFBF"/>
<mask id="mask2_767_757" style="mask-type:luminance" maskUnits="userSpaceOnUse" x="72" y="128" width="37" height="6">
<path d="M73.6755 133.256C73.3935 133.266 73.1189 133.164 72.9121 132.972C72.7054 132.78 72.5834 132.513 72.573 132.231C72.5626 131.949 72.6647 131.675 72.8568 131.468C73.0489 131.261 73.3152 131.139 73.5973 131.129L107.663 128.611C107.945 128.59 108.223 128.682 108.437 128.866C108.65 129.051 108.782 129.312 108.803 129.594C108.823 129.875 108.732 130.153 108.547 130.367C108.363 130.581 108.101 130.712 107.82 130.733L73.7538 133.251L73.6755 133.256Z" fill="white"/>
</mask>
<g mask="url(#mask2_767_757)">
<g opacity="0.4">
<path d="M108.667 129.182C108.584 129.343 108.462 129.479 108.311 129.578C108.16 129.678 107.986 129.736 107.806 129.748L73.7399 132.266H73.6616C73.5682 132.319 73.4628 132.348 73.3553 132.349C73.2478 132.351 73.1417 132.325 73.0469 132.274C72.9521 132.223 72.8718 132.149 72.8135 132.059C72.7551 131.969 72.7207 131.865 72.7133 131.758C72.706 131.65 72.726 131.543 72.7714 131.446C72.8169 131.348 72.8864 131.264 72.9733 131.201C73.0602 131.137 73.1618 131.097 73.2685 131.084C73.3752 131.07 73.4836 131.084 73.5834 131.124L107.649 128.606C107.857 128.592 108.064 128.639 108.245 128.741C108.426 128.843 108.572 128.997 108.667 129.182Z" fill="white"/>
</g>
</g>
<path d="M73.6755 133.256C73.3935 133.266 73.1189 133.164 72.9121 132.972C72.7054 132.78 72.5834 132.513 72.573 132.231C72.5626 131.949 72.6647 131.675 72.8568 131.468C73.0489 131.261 73.3152 131.139 73.5973 131.129L107.663 128.611C107.945 128.59 108.223 128.682 108.437 128.866C108.65 129.051 108.782 129.312 108.803 129.594C108.823 129.875 108.732 130.153 108.547 130.367C108.363 130.581 108.101 130.712 107.82 130.733L73.7538 133.251L73.6755 133.256Z" stroke="#263238" stroke-linecap="round" stroke-linejoin="round"/>
<path d="M74.2832 137.362C74.0012 137.372 73.7266 137.27 73.5198 137.078C73.313 136.886 73.191 136.62 73.1807 136.338C73.1703 136.056 73.2724 135.781 73.4645 135.574C73.6565 135.368 73.9229 135.246 74.2049 135.235L107.092 132.8C107.374 132.779 107.652 132.871 107.866 133.055C108.079 133.24 108.211 133.501 108.232 133.783C108.253 134.064 108.161 134.342 107.976 134.556C107.792 134.77 107.53 134.901 107.249 134.922L74.3615 137.357L74.2832 137.362Z" fill="#BFBFBF"/>
<mask id="mask3_767_757" style="mask-type:luminance" maskUnits="userSpaceOnUse" x="73" y="132" width="36" height="6">
<path d="M74.2832 137.362C74.0012 137.372 73.7266 137.27 73.5198 137.078C73.313 136.886 73.191 136.62 73.1807 136.338C73.1703 136.056 73.2724 135.781 73.4645 135.574C73.6565 135.368 73.9229 135.246 74.2049 135.235L107.092 132.8C107.374 132.779 107.652 132.871 107.866 133.055C108.079 133.24 108.211 133.501 108.232 133.783C108.253 134.064 108.161 134.342 107.976 134.556C107.792 134.77 107.53 134.901 107.249 134.922L74.3615 137.357L74.2832 137.362Z" fill="white"/>
</mask>
<g mask="url(#mask3_767_757)">
<g opacity="0.4">
<path d="M108.087 133.371C108.005 133.531 107.882 133.668 107.731 133.767C107.58 133.867 107.406 133.925 107.226 133.937L74.3386 136.381H74.2833C74.1899 136.435 74.0845 136.463 73.977 136.465C73.8694 136.466 73.7633 136.44 73.6686 136.389C73.5738 136.339 73.4935 136.265 73.4351 136.174C73.3768 136.084 73.3423 135.98 73.335 135.873C73.3276 135.766 73.3476 135.658 73.3931 135.561C73.4386 135.463 73.508 135.379 73.595 135.316C73.6819 135.253 73.7835 135.212 73.8902 135.199C73.9969 135.186 74.1052 135.2 74.2051 135.24L107.093 132.805C107.295 132.795 107.496 132.844 107.672 132.944C107.848 133.044 107.992 133.192 108.087 133.371Z" fill="white"/>
</g>
</g>
<path d="M74.2832 137.362C74.0012 137.372 73.7266 137.27 73.5198 137.078C73.313 136.886 73.191 136.62 73.1807 136.338C73.1703 136.056 73.2724 135.781 73.4645 135.574C73.6565 135.368 73.9229 135.246 74.2049 135.235L107.092 132.8C107.374 132.779 107.652 132.871 107.866 133.055C108.079 133.24 108.211 133.501 108.232 133.783C108.253 134.064 108.161 134.342 107.976 134.556C107.792 134.77 107.53 134.901 107.249 134.922L74.3615 137.357L74.2832 137.362Z" stroke="#263238" stroke-linecap="round" stroke-linejoin="round"/>
<path d="M74.8402 141.468C74.5582 141.478 74.2838 141.376 74.0775 141.183C73.8711 140.991 73.7497 140.724 73.74 140.442C73.7302 140.16 73.8329 139.886 74.0254 139.679C74.2179 139.473 74.4845 139.351 74.7665 139.342L106.485 136.998C106.624 136.988 106.764 137.005 106.897 137.049C107.029 137.093 107.152 137.163 107.258 137.254C107.364 137.345 107.451 137.456 107.513 137.581C107.576 137.706 107.614 137.842 107.624 137.981C107.634 138.121 107.617 138.261 107.573 138.393C107.529 138.526 107.46 138.649 107.369 138.755C107.277 138.86 107.166 138.947 107.041 139.01C106.917 139.073 106.781 139.11 106.641 139.121L74.9231 141.468H74.8402Z" fill="#BFBFBF"/>
<mask id="mask4_767_757" style="mask-type:luminance" maskUnits="userSpaceOnUse" x="73" y="136" width="35" height="6">
<path d="M74.8402 141.468C74.5582 141.478 74.2838 141.376 74.0775 141.183C73.8711 140.991 73.7497 140.724 73.74 140.442C73.7302 140.16 73.8329 139.886 74.0254 139.679C74.2179 139.473 74.4845 139.351 74.7665 139.342L106.485 136.998C106.624 136.988 106.764 137.005 106.897 137.049C107.029 137.093 107.152 137.163 107.258 137.254C107.364 137.345 107.451 137.456 107.513 137.581C107.576 137.706 107.614 137.842 107.624 137.981C107.634 138.121 107.617 138.261 107.573 138.393C107.529 138.526 107.46 138.649 107.369 138.755C107.277 138.86 107.166 138.947 107.041 139.01C106.917 139.073 106.781 139.11 106.641 139.121L74.9231 141.468H74.8402Z" fill="white"/>
</mask>
<g mask="url(#mask4_767_757)">
<g opacity="0.4">
<path d="M107.502 137.569C107.421 137.731 107.298 137.868 107.147 137.968C106.996 138.067 106.822 138.125 106.641 138.136L74.923 140.483H74.8401C74.7466 140.536 74.6414 140.563 74.5344 140.564C74.4273 140.565 74.3218 140.538 74.2277 140.487C74.1335 140.436 74.0538 140.362 73.9959 140.272C73.938 140.182 73.9038 140.079 73.8966 139.972C73.8893 139.865 73.9091 139.758 73.9542 139.661C73.9993 139.564 74.0682 139.48 74.1545 139.417C74.2409 139.353 74.3418 139.313 74.448 139.299C74.5542 139.285 74.6621 139.298 74.7618 139.337L106.48 136.994C106.688 136.979 106.896 137.026 107.078 137.128C107.259 137.23 107.407 137.384 107.502 137.569Z" fill="white"/>
</g>
</g>
<path d="M74.8402 141.468C74.5582 141.478 74.2838 141.376 74.0775 141.183C73.8711 140.991 73.7497 140.724 73.74 140.442C73.7302 140.16 73.8329 139.886 74.0254 139.679C74.2179 139.473 74.4845 139.351 74.7665 139.342L106.485 136.998C106.624 136.988 106.764 137.005 106.897 137.049C107.029 137.093 107.152 137.163 107.258 137.254C107.364 137.345 107.451 137.456 107.513 137.581C107.576 137.706 107.614 137.842 107.624 137.981C107.634 138.121 107.617 138.261 107.573 138.393C107.529 138.526 107.46 138.649 107.369 138.755C107.277 138.86 107.166 138.947 107.041 139.01C106.917 139.073 106.781 139.11 106.641 139.121L74.9231 141.468H74.8402Z" stroke="#263238" stroke-linecap="round" stroke-linejoin="round"/>
<path d="M75.4248 145.589C75.1427 145.599 74.8681 145.497 74.6614 145.305C74.4546 145.113 74.3326 144.846 74.3222 144.564C74.3118 144.282 74.4139 144.008 74.606 143.801C74.7981 143.594 75.0645 143.472 75.3465 143.462L105.9 141.201C106.181 141.181 106.46 141.273 106.673 141.457C106.887 141.641 107.019 141.903 107.039 142.184C107.06 142.466 106.968 142.744 106.784 142.957C106.6 143.171 106.338 143.303 106.057 143.324L75.503 145.589H75.4248Z" fill="#BFBFBF"/>
<mask id="mask5_767_757" style="mask-type:luminance" maskUnits="userSpaceOnUse" x="74" y="141" width="34" height="5">
<path d="M75.4248 145.589C75.1427 145.599 74.8681 145.497 74.6614 145.305C74.4546 145.113 74.3326 144.846 74.3222 144.564C74.3118 144.282 74.4139 144.008 74.606 143.801C74.7981 143.594 75.0645 143.472 75.3465 143.462L105.9 141.201C106.181 141.181 106.46 141.273 106.673 141.457C106.887 141.641 107.019 141.903 107.039 142.184C107.06 142.466 106.968 142.744 106.784 142.957C106.6 143.171 106.338 143.303 106.057 143.324L75.503 145.589H75.4248Z" fill="white"/>
</mask>
<g mask="url(#mask5_767_757)">
<g opacity="0.4">
<path d="M106.922 141.759C106.839 141.92 106.717 142.057 106.566 142.157C106.415 142.257 106.242 142.316 106.061 142.329L75.503 144.59H75.4247C75.3313 144.643 75.2259 144.672 75.1184 144.673C75.0108 144.674 74.9047 144.648 74.81 144.598C74.7152 144.547 74.6349 144.473 74.5765 144.382C74.5182 144.292 74.4837 144.188 74.4764 144.081C74.469 143.974 74.489 143.867 74.5345 143.769C74.58 143.672 74.6494 143.587 74.7364 143.524C74.8233 143.461 74.9249 143.421 75.0316 143.407C75.1383 143.394 75.2466 143.408 75.3464 143.448L105.9 141.188C106.107 141.173 106.315 141.219 106.496 141.321C106.678 141.422 106.826 141.574 106.922 141.759Z" fill="white"/>
</g>
</g>
<path d="M75.4248 145.589C75.1427 145.599 74.8681 145.497 74.6614 145.305C74.4546 145.113 74.3326 144.846 74.3222 144.564C74.3118 144.282 74.4139 144.008 74.606 143.801C74.7981 143.594 75.0645 143.472 75.3465 143.462L105.9 141.201C106.181 141.181 106.46 141.273 106.673 141.457C106.887 141.641 107.019 141.903 107.039 142.184C107.06 142.466 106.968 142.744 106.784 142.957C106.6 143.171 106.338 143.303 106.057 143.324L75.503 145.589H75.4248Z" stroke="#263238" stroke-linecap="round" stroke-linejoin="round"/>
<path d="M113.279 112.747L112.11 125.794L109.376 127.856H72.032L69.2929 125.794L68.1282 112.747L68.9385 110.68H112.465L113.279 112.747Z" fill="#37455D"/>
<path d="M113.279 112.747L112.11 125.794L109.376 127.856H72.032L69.2929 125.794L68.1282 112.747L68.9385 110.68H112.465L113.279 112.747Z" stroke="#263238" stroke-linecap="round" stroke-linejoin="round"/>
<path d="M68.1282 112.747H84.8482" stroke="#263238" stroke-linecap="round" stroke-linejoin="round"/>
<path d="M87.4723 112.747H91.6799" stroke="#263238" stroke-linecap="round" stroke-linejoin="round"/>
<path d="M94.6768 112.747H95.6113" stroke="#263238" stroke-linecap="round" stroke-linejoin="round"/>
<path d="M113.28 112.747H109.164" stroke="#263238" stroke-linecap="round" stroke-linejoin="round"/>
<path d="M112.11 125.793H95.6112" stroke="#263238" stroke-linecap="round" stroke-linejoin="round"/>
<path d="M92.8998 125.793H87.4723" stroke="#263238" stroke-linecap="round" stroke-linejoin="round"/>
<path d="M83.2599 125.793H82.1367" stroke="#263238" stroke-linecap="round" stroke-linejoin="round"/>
<path d="M69.2931 125.793H73.7769" stroke="#263238" stroke-linecap="round" stroke-linejoin="round"/>
<path opacity="0.4" d="M81.1102 146.606C82.6616 148.033 86.372 149.041 90.704 149.041C95.0359 149.041 98.7417 148.033 100.298 146.606H81.1102Z" fill="white"/>
<path opacity="0.2" d="M92.6973 153.414H88.6922C88.5533 153.413 88.4184 153.368 88.3067 153.285C88.1951 153.202 88.1125 153.087 88.0707 152.954L87.5091 151.228H93.8942L93.3325 152.954C93.2907 153.089 93.2062 153.207 93.0916 153.29C92.9771 153.373 92.8387 153.417 92.6973 153.414Z" fill="white"/>
<path opacity="0.2" d="M87.509 150.56H93.8941L94.6076 150.017H86.8L87.509 150.56Z" fill="white"/>
<path d="M90.4615 2.63931C90.4615 2.09287 90.4615 1.54643 90.4393 1" stroke="#263238" stroke-linecap="round" stroke-linejoin="round"/>
<path d="M90.4393 18.979C90.4896 15.6233 90.5104 12.2677 90.5015 8.91211" stroke="#263238" stroke-linecap="round" stroke-linejoin="round"/>
<path d="M90.4393 27.8996V25.0564" stroke="#263238" stroke-linecap="round" stroke-linejoin="round"/>
<path d="M113.318 7.0819C113.763 6.10009 114.207 5.12273 114.691 4.15869" stroke="#263238" stroke-linecap="round" stroke-linejoin="round"/>
<path d="M106.921 22.2843C108.747 18.3304 110.284 14.2566 111.959 10.2405" stroke="#263238" stroke-linecap="round" stroke-linejoin="round"/>
<path d="M103.309 30.7118C104.094 28.8755 104.879 27.0437 105.664 25.2163" stroke="#263238" stroke-linecap="round" stroke-linejoin="round"/>
<path d="M100.057 27.8998L104.802 11.0403" stroke="#263238" stroke-linecap="round" stroke-linejoin="round"/>
<path d="M72.8112 14.3098C74.4283 19.3566 75.8011 24.4966 77.4359 29.4634" stroke="#263238" stroke-linecap="round" stroke-linejoin="round"/>
<path d="M69.7147 4.15869C70.4403 6.52806 71.1629 8.89742 71.8826 11.2668" stroke="#263238" stroke-linecap="round" stroke-linejoin="round"/>
<path d="M73.5175 29.2324L74.1839 30.7118" stroke="#263238" stroke-linecap="round" stroke-linejoin="round"/>
<path d="M68.9018 18.979L72.2693 26.4558" stroke="#263238" stroke-linecap="round" stroke-linejoin="round"/>
<path d="M49.9453 37.0293C51.6602 39.0107 53.3617 41.0054 55.0187 43.0401" stroke="#263238" stroke-linecap="round" stroke-linejoin="round"/>
<path d="M42.2863 27.9707C44.0634 30.2231 45.9603 32.4133 47.844 34.599" stroke="#263238" stroke-linecap="round" stroke-linejoin="round"/>
<path d="M38.759 23.8037L40.0917 25.3986" stroke="#263238" stroke-linecap="round" stroke-linejoin="round"/>
<path d="M43.1616 36.7183L52.2377 45.479" stroke="#263238" stroke-linecap="round" stroke-linejoin="round"/>
<path d="M44.1256 65.4971L46.8889 66.2034" stroke="#263238" stroke-linecap="round" stroke-linejoin="round"/>
<path d="M24.3606 60.4458L41.3268 64.7995" stroke="#263238" stroke-linecap="round" stroke-linejoin="round"/>
<path d="M19.3183 59.1577L21.1531 59.6286" stroke="#263238" stroke-linecap="round" stroke-linejoin="round"/>
<path d="M40.4338 59.7617L46.8888 62.6805" stroke="#263238" stroke-linecap="round" stroke-linejoin="round"/>
<path d="M33.1035 56.4521L37.5461 58.4602" stroke="#263238" stroke-linecap="round" stroke-linejoin="round"/>
<path d="M145.691 25.7628L146.798 24.8477" stroke="#263238" stroke-linecap="round" stroke-linejoin="round"/>
<path d="M140.538 30.0365L143.115 27.8997" stroke="#263238" stroke-linecap="round" stroke-linejoin="round"/>
<path d="M129.934 38.824L137.975 32.1602" stroke="#263238" stroke-linecap="round" stroke-linejoin="round"/>
<path d="M123.359 44.2705L127.499 40.8408" stroke="#263238" stroke-linecap="round" stroke-linejoin="round"/>
<path d="M124.309 23.8037L115.366 36.1318" stroke="#263238" stroke-linecap="round" stroke-linejoin="round"/>
<path d="M159.756 52.1606L161.698 51.5742" stroke="#263238" stroke-linecap="round" stroke-linejoin="round"/>
<path d="M141.684 57.6337C146.744 56.1544 151.822 54.7328 156.82 53.0535" stroke="#263238" stroke-linecap="round" stroke-linejoin="round"/>
<path d="M132.706 60.3793C134.643 59.744 136.593 59.1443 138.548 58.5579" stroke="#263238" stroke-linecap="round" stroke-linejoin="round"/>
<path d="M133.79 65.2572L150.316 63.0981" stroke="#263238" stroke-linecap="round" stroke-linejoin="round"/>
<path d="M157.615 93.9429L160.076 94.7336" stroke="#263238" stroke-linecap="round" stroke-linejoin="round"/>
<path d="M133.248 86.124C140.52 88.1809 147.366 90.9175 154.648 92.9833" stroke="#263238" stroke-linecap="round" stroke-linejoin="round"/>
<path d="M144.55 84.791L154.248 86.1238" stroke="#263238" stroke-linecap="round" stroke-linejoin="round"/>
<path d="M133.79 83.2808L141.267 84.347" stroke="#263238" stroke-linecap="round" stroke-linejoin="round"/>
<path d="M140.765 124.112L142.013 125.672" stroke="#263238" stroke-linecap="round" stroke-linejoin="round"/>
<path d="M123.359 102.348C128.534 108.732 133.67 115.232 138.908 121.775" stroke="#263238" stroke-linecap="round" stroke-linejoin="round"/>
<path d="M131.009 105.818C132.51 107.281 134.01 108.744 135.509 110.207" stroke="#263238" stroke-linecap="round" stroke-linejoin="round"/>
<path d="M125.393 100.34L129.134 103.987" stroke="#263238" stroke-linecap="round" stroke-linejoin="round"/>
<path d="M44.8275 124.352L43.8413 125.711" stroke="#263238" stroke-linecap="round" stroke-linejoin="round"/>
<path d="M50.9138 116.018C49.5188 117.977 48.1061 119.928 46.6534 121.847" stroke="#263238" stroke-linecap="round" stroke-linejoin="round"/>
<path d="M59.4346 104.307C57.1289 107.271 54.9521 110.336 52.7708 113.401" stroke="#263238" stroke-linecap="round" stroke-linejoin="round"/>
<path d="M51.4736 106.693L46.4135 111.242" stroke="#263238" stroke-linecap="round" stroke-linejoin="round"/>
<path d="M56.7069 101.988L53.7171 104.676" stroke="#263238" stroke-linecap="round" stroke-linejoin="round"/>
<path d="M30.7269 95.9998L24.876 98.9185" stroke="#263238" stroke-linecap="round" stroke-linejoin="round"/>
<path d="M48.3282 87.2346C43.628 89.5581 38.4924 91.9526 33.5345 94.6093" stroke="#263238" stroke-linecap="round" stroke-linejoin="round"/>
<path d="M46.8888 80.1221L34.0853 82.3567" stroke="#263238" stroke-linecap="round" stroke-linejoin="round"/>
<path d="M127.957 51.574L135.509 46.967" stroke="#263238" stroke-linecap="round" stroke-linejoin="round"/>
<path d="M58.8748 28.8149L63.4818 36.1318" stroke="#263238" stroke-linecap="round" stroke-linejoin="round"/>
<path d="M119.294 113.606L122.141 119.665" stroke="#263238" stroke-linecap="round" stroke-linejoin="round"/>
<path d="M116.859 108.412C117.255 109.256 117.654 110.105 118.05 110.953" stroke="#263238" stroke-linecap="round" stroke-linejoin="round"/>
<path d="M143.434 98.5854L145.034 99.5273" stroke="#263238" stroke-linecap="round" stroke-linejoin="round"/>
<path d="M131.733 91.677L140.707 96.9725" stroke="#263238" stroke-linecap="round" stroke-linejoin="round"/>
<path d="M153.639 76.1592H157.904" stroke="#263238" stroke-linecap="round" stroke-linejoin="round"/>
<path d="M135.078 76.1592C140.178 76.2036 145.296 76.2036 150.596 76.1592" stroke="#263238" stroke-linecap="round" stroke-linejoin="round"/>
<path d="M26.5597 76.3503L18.7808 76.4792" stroke="#263238" stroke-linecap="round" stroke-linejoin="round"/>
<path d="M41.7177 76.1238C37.6084 76.2082 33.499 76.226 29.3852 76.2793" stroke="#263238" stroke-linecap="round" stroke-linejoin="round"/>
<path d="M46.4135 75.9993L44.752 76.0526" stroke="#263238" stroke-linecap="round" stroke-linejoin="round"/>
<path d="M38.9988 44.4171L32.606 40.3167" stroke="#263238" stroke-linecap="round" stroke-linejoin="round"/>
<path d="M50.1631 51.5739L41.7799 46.2029" stroke="#263238" stroke-linecap="round" stroke-linejoin="round"/>
</svg>
