<svg width="30" height="30" viewBox="0 0 30 30" fill="none" xmlns="http://www.w3.org/2000/svg">
<path d="M13.1297 0L11.2594 4.45137C10.8853 4.56359 10.5486 4.75062 10.212 4.93766L5.7606 3.06733L3.06733 5.7606L4.93766 10.212C4.75062 10.586 4.601 10.8853 4.45137 11.2594L0 13.1297V16.8703L4.45137 18.7406C4.601 19.1147 4.75062 19.414 4.93766 19.788L3.06733 24.2394L5.7606 26.9327L10.212 25.0623C10.5486 25.212 10.8853 25.399 11.2594 25.5486L13.1297 30H16.8703L18.7406 25.5486C19.0773 25.399 19.4514 25.2494 19.788 25.0623L24.2394 26.9327L26.9327 24.2394L25.0623 19.788C25.212 19.4514 25.399 19.0773 25.5486 18.7406L30 16.8703V13.1297L25.5486 11.2594C25.4364 10.9227 25.2494 10.5486 25.0623 10.212L26.9327 5.7606L24.2394 3.06733L19.788 4.93766C19.4514 4.78803 19.0773 4.601 18.7406 4.45137L16.8703 0L13.1297 0ZM15 9.35162C18.1047 9.35162 20.611 11.8579 20.611 14.9626C20.611 18.0673 18.1047 20.5736 15 20.5736C11.8953 20.5736 9.38903 18.0673 9.38903 14.9626C9.38903 11.8579 11.8953 9.35162 15 9.35162Z" fill="#37455D"/>
</svg>
