<svg width="336" height="659" viewBox="0 0 336 659" fill="none" xmlns="http://www.w3.org/2000/svg">
<path d="M305.41 14.774H206.488C203.639 14.7775 200.843 15.5617 198.391 17.0452C195.938 18.5287 193.918 20.6573 192.541 23.2099C190.11 27.6995 186.549 31.4413 182.228 34.0467C177.907 36.6521 172.982 38.0262 167.967 38.0262C162.951 38.0262 158.027 36.6521 153.706 34.0467C149.384 31.4413 145.823 27.6995 143.392 23.2099C142.027 20.6243 140.003 18.4647 137.536 16.9596C135.069 15.4545 132.251 14.6599 129.378 14.66H30.5681C27.8558 14.6238 25.1631 15.1348 22.6438 16.1637C20.1245 17.1925 17.8279 18.7192 15.8852 20.6564C13.9425 22.5937 12.3917 24.9035 11.3215 27.4542C10.2512 30.0048 9.68234 32.7462 9.64746 35.5218V606.472C9.72379 612.076 11.9695 617.42 15.8917 621.331C19.8138 625.242 25.0921 627.401 30.5681 627.334H305.41C310.888 627.401 316.169 625.243 320.095 621.332C324.02 617.422 326.271 612.078 326.353 606.472V35.6358C326.277 30.0281 324.028 24.6809 320.101 20.7691C316.174 16.8573 310.89 14.7009 305.41 14.774Z" fill="#B0D2D3"/>
<path d="M336 29.3205C336.012 25.4743 335.281 21.6637 333.851 18.1069C332.421 14.5501 330.319 11.3171 327.666 8.59329C325.012 5.86943 321.86 3.70825 318.388 2.23364C314.917 0.759035 311.196 -9.82133e-06 307.437 8.90007e-06H28.5625C24.8127 -0.0029867 21.099 0.750244 17.6338 2.21666C14.1686 3.68308 11.0197 5.83395 8.36712 8.54632C5.71455 11.2587 3.6103 14.4794 2.17463 18.0244C0.738952 21.5693 -1.14257e-06 25.3691 0 29.2065V629.272C0 637.018 3.00689 644.447 8.35923 649.924C13.7116 655.402 20.9709 658.479 28.5403 658.479H307.437C315.009 658.479 322.27 655.403 327.626 649.926C332.982 644.449 335.994 637.021 336 629.272V29.3205ZM326.353 606.473C326.271 612.078 324.02 617.422 320.094 621.333C316.169 625.243 310.888 627.401 305.41 627.334H30.5677C25.0917 627.401 19.8135 625.242 15.8913 621.331C11.9691 617.42 9.7234 612.076 9.64707 606.473V35.636C9.68196 32.8604 10.2508 30.119 11.3211 27.5684C12.3914 25.0178 13.9421 22.7079 15.8848 20.7706C17.8276 18.8334 20.1241 17.3068 22.6434 16.2779C25.1627 15.249 27.8554 14.7381 30.5677 14.7742H129.423C132.292 14.7734 135.108 15.5678 137.571 17.0732C140.035 18.5786 142.054 20.7387 143.414 23.3241C145.845 27.8137 149.406 31.5555 153.728 34.1609C158.049 36.7663 162.973 38.1404 167.989 38.1404C173.004 38.1404 177.929 36.7663 182.25 34.1609C186.571 31.5555 190.132 27.8137 192.563 23.3241C193.936 20.7684 195.955 18.6371 198.409 17.1531C200.862 15.6691 203.66 14.8869 206.51 14.8882H305.432C308.144 14.8521 310.837 15.363 313.356 16.3919C315.876 17.4207 318.172 18.9474 320.115 20.8846C322.058 22.8219 323.608 25.1318 324.679 27.6824C325.749 30.233 326.318 32.9744 326.353 35.75V606.473Z" fill="#263238"/>
<path opacity="0.2" d="M241.244 0.0908203L55.9888 658.524L129.556 658.456L307.95 0.0908203H241.244Z" fill="white"/>
<path opacity="0.2" d="M213.618 0.0908203L17.7568 658.547L28.4734 658.478L220.658 0.0908203H213.618Z" fill="white"/>
<path d="M217.962 489.579C218.099 496.105 216.958 502.594 214.607 508.662C212.256 514.73 208.741 520.256 204.271 524.913C199.801 529.57 194.466 533.265 188.579 535.78C182.692 538.295 176.373 539.578 169.994 539.555C156.978 539.505 144.497 534.25 135.214 524.913C125.932 515.576 120.583 502.895 120.31 489.579C120.177 483.054 121.32 476.568 123.672 470.502C126.025 464.436 129.539 458.914 134.009 454.259C138.479 449.604 143.813 445.911 149.699 443.398C155.584 440.885 161.901 439.602 168.278 439.624C181.292 439.669 193.773 444.919 203.057 454.252C212.34 463.586 217.689 476.264 217.962 489.579Z" fill="white" stroke="#263238" stroke-linecap="round" stroke-linejoin="round"/>
<path d="M153.128 526.879C148.594 525.162 144.436 522.543 140.897 519.172C137.329 515.664 134.566 511.389 132.809 506.655C130.807 501.349 129.816 495.699 129.891 490.011C129.863 485.162 130.701 480.348 132.364 475.807C133.875 471.613 136.142 467.746 139.048 464.407C144.775 457.996 152.172 453.393 160.369 451.138C164.394 450.028 168.544 449.468 172.712 449.474C176.173 449.458 179.623 449.879 182.983 450.728C186.226 451.542 189.328 452.857 192.185 454.626C195.013 456.365 197.548 458.559 199.693 461.124C201.928 463.89 203.636 467.061 204.728 470.472C205.977 474.363 206.594 478.438 206.555 482.533C206.508 490.448 203.722 498.09 198.69 504.102C196.527 506.612 193.966 508.731 191.115 510.372C188.657 511.815 185.883 512.599 183.05 512.652C181.094 512.678 179.183 512.045 177.614 510.85C176.826 510.253 176.184 509.477 175.739 508.583C175.295 507.689 175.059 506.701 175.052 505.698C173.59 507.972 171.584 509.825 169.225 511.082C166.865 512.339 164.231 512.958 161.572 512.88C159.481 512.975 157.395 512.591 155.467 511.754C153.54 510.918 151.82 509.651 150.432 508.046C147.651 504.738 146.181 500.484 146.311 496.122C146.329 492.532 146.939 488.971 148.115 485.588C149.286 482.18 150.946 478.968 153.039 476.058C155.126 473.199 157.784 470.828 160.837 469.104C163.889 467.341 167.336 466.422 170.841 466.437C173.277 466.411 175.681 467.007 177.837 468.169C179.929 469.311 181.626 471.087 182.693 473.254L183.139 471.726C183.494 470.656 184.25 469.774 185.24 469.274C186.23 468.774 187.373 468.696 188.419 469.059C188.824 469.199 189.207 469.399 189.556 469.651C189.888 469.922 190.152 470.271 190.326 470.667C190.501 471.064 190.58 471.497 190.558 471.931C190.559 472.358 190.491 472.781 190.358 473.185L183.139 497.763C182.503 499.636 182.091 501.58 181.914 503.554C181.847 503.923 181.87 504.302 181.981 504.659C182.092 505.016 182.287 505.34 182.549 505.601C182.812 505.863 183.133 506.054 183.484 506.158C183.836 506.263 184.207 506.277 184.565 506.199C187.12 506.032 189.513 504.864 191.249 502.939C193.656 500.504 195.505 497.552 196.663 494.298C198.045 490.743 198.756 486.952 198.757 483.126C198.787 479.757 198.306 476.404 197.331 473.185C196.512 470.411 195.214 467.808 193.499 465.502C191.875 463.401 189.907 461.604 187.684 460.189C185.468 458.759 183.048 457.69 180.51 457.02C177.907 456.32 175.226 455.967 172.534 455.971C169.12 455.976 165.723 456.468 162.441 457.431C159.062 458.41 155.841 459.893 152.883 461.831C149.901 463.757 147.2 466.106 144.863 468.808C142.454 471.654 140.581 474.932 139.337 478.475C137.938 482.333 137.236 486.42 137.265 490.536C137.192 495.41 138.055 500.252 139.805 504.786C141.314 508.711 143.694 512.223 146.756 515.046C149.715 517.674 153.132 519.708 156.827 521.042C160.726 522.453 164.834 523.163 168.969 523.139C173.389 523.14 177.783 522.455 182.003 521.11C182.424 520.955 182.869 520.878 183.317 520.882C183.735 520.876 184.15 520.96 184.534 521.129C184.918 521.298 185.262 521.548 185.545 521.863C185.83 522.166 186.053 522.523 186.202 522.914C186.351 523.305 186.423 523.723 186.414 524.143C186.468 524.806 186.285 525.466 185.9 526.003C185.515 526.539 184.954 526.915 184.32 527.061C179.062 528.706 173.599 529.566 168.1 529.615C162.991 529.608 157.924 528.682 153.128 526.879ZM171.531 503.235C173.734 501.617 175.367 499.314 176.188 496.669L180.844 479.911L180.532 479.227C180.243 478.678 179.891 478.165 179.485 477.7C178.927 477.041 178.316 476.431 177.658 475.876C176.824 475.194 175.882 474.662 174.873 474.302C172.236 473.36 169.35 473.466 166.786 474.599C165.381 475.208 164.091 476.064 162.976 477.13C161.816 478.236 160.785 479.476 159.901 480.823C159.017 482.226 158.27 483.715 157.673 485.269C157.047 486.824 156.562 488.434 156.225 490.08C155.889 491.645 155.717 493.242 155.713 494.845C155.693 495.874 155.753 496.903 155.891 497.923C155.994 498.83 156.188 499.724 156.47 500.591C156.715 501.396 157.067 502.164 157.517 502.871C157.921 503.507 158.434 504.064 159.032 504.512C159.67 504.985 160.388 505.333 161.149 505.538C162.038 505.805 162.963 505.928 163.889 505.903C166.677 505.938 169.397 505.024 171.62 503.304L171.531 503.235Z" fill="#E6C451" stroke="#263238" stroke-linecap="round" stroke-linejoin="round"/>
<path d="M216.87 318.284C217.004 324.809 215.861 331.295 213.508 337.36C211.156 343.426 207.641 348.949 203.171 353.604C198.702 358.259 193.367 361.951 187.482 364.465C181.597 366.978 175.279 368.261 168.902 368.238C155.888 368.194 143.407 362.944 134.124 353.61C124.841 344.277 119.492 331.599 119.219 318.284C119.079 311.757 120.217 305.267 122.568 299.197C124.918 293.127 128.432 287.6 132.902 282.943C137.373 278.285 142.71 274.59 148.598 272.076C154.486 269.563 160.807 268.281 167.187 268.307C180.203 268.358 192.684 273.612 201.966 282.95C211.249 292.287 216.597 304.967 216.87 318.284Z" fill="white" stroke="#263238" stroke-linecap="round" stroke-linejoin="round"/>
<path d="M198.69 313.724C183.384 303.464 153.373 303.464 138.78 313.724C136.111 314.236 133.711 315.713 132.018 317.885C130.325 320.058 129.451 322.781 129.556 325.557C129.779 332.192 156.715 332.192 156.492 325.557C156.361 322.783 155.326 320.135 153.552 318.033C163.654 315.799 174.106 315.799 184.208 318.033C182.564 320.172 181.712 322.837 181.802 325.557C182.025 332.192 208.961 332.192 208.716 325.557C208.589 322.718 207.531 320.006 205.712 317.859C203.892 315.711 201.419 314.255 198.69 313.724Z" fill="#E6C451" stroke="#263238" stroke-linecap="round" stroke-linejoin="round"/>
<path d="M216.87 151.892C217.138 164.181 210.587 175.17 200.071 182.489V212.334L179.151 190.902C175.768 191.521 172.338 191.826 168.902 191.814C141.944 191.814 119.686 173.939 119.218 151.892C118.751 129.844 140.206 111.992 167.187 111.992C194.167 111.992 216.514 129.958 216.87 151.892Z" fill="white" stroke="#263238" stroke-linecap="round" stroke-linejoin="round"/>
<path d="M147.246 151.892C147.251 153.173 146.883 154.428 146.191 155.495C145.498 156.563 144.511 157.397 143.356 157.89C142.2 158.384 140.927 158.515 139.698 158.268C138.469 158.021 137.34 157.406 136.452 156.501C135.565 155.597 134.96 154.443 134.715 153.186C134.469 151.93 134.593 150.626 135.071 149.442C135.549 148.257 136.36 147.245 137.401 146.532C138.442 145.82 139.666 145.439 140.919 145.439C142.593 145.439 144.199 146.119 145.385 147.328C146.571 148.537 147.24 150.178 147.246 151.892Z" fill="#E6C451" stroke="#263238" stroke-linecap="round" stroke-linejoin="round"/>
<path d="M174.316 151.892C174.321 153.173 173.953 154.428 173.261 155.495C172.568 156.563 171.582 157.397 170.426 157.89C169.27 158.384 167.997 158.515 166.768 158.268C165.539 158.021 164.41 157.406 163.523 156.501C162.636 155.597 162.031 154.443 161.785 153.186C161.539 151.93 161.663 150.626 162.141 149.442C162.619 148.257 163.43 147.245 164.471 146.532C165.512 145.82 166.737 145.439 167.989 145.439C169.663 145.439 171.269 146.119 172.455 147.328C173.641 148.537 174.311 150.178 174.316 151.892Z" fill="#E6C451" stroke="#263238" stroke-linecap="round" stroke-linejoin="round"/>
<path d="M201.386 151.892C201.39 153.173 201.023 154.428 200.33 155.495C199.638 156.563 198.651 157.397 197.495 157.89C196.34 158.384 195.067 158.515 193.838 158.268C192.609 158.021 191.48 157.406 190.592 156.501C189.705 155.597 189.1 154.443 188.854 153.186C188.608 151.93 188.732 150.626 189.211 149.442C189.689 148.257 190.5 147.245 191.541 146.532C192.582 145.82 193.806 145.439 195.059 145.439C196.733 145.439 198.339 146.119 199.525 147.328C200.711 148.537 201.38 150.178 201.386 151.892Z" fill="#E6C451" stroke="#263238" stroke-linecap="round" stroke-linejoin="round"/>
</svg>
