<svg width="121" height="36" viewBox="0 0 121 36" fill="none" xmlns="http://www.w3.org/2000/svg">
<path d="M10.3998 4.6665H21.5998C25.8665 4.6665 29.3332 8.13317 29.3332 12.3998V23.5998C29.3332 25.6508 28.5184 27.6178 27.0681 29.0681C25.6178 30.5184 23.6508 31.3332 21.5998 31.3332H10.3998C6.13317 31.3332 2.6665 27.8665 2.6665 23.5998V12.3998C2.6665 10.3488 3.48126 8.38183 4.93154 6.93154C6.38183 5.48126 8.34883 4.6665 10.3998 4.6665ZM10.1332 7.33317C8.86013 7.33317 7.63923 7.83888 6.73906 8.73906C5.83888 9.63923 5.33317 10.8601 5.33317 12.1332V23.8665C5.33317 26.5198 7.47984 28.6665 10.1332 28.6665H21.8665C23.1395 28.6665 24.3604 28.1608 25.2606 27.2606C26.1608 26.3604 26.6665 25.1395 26.6665 23.8665V12.1332C26.6665 9.47984 24.5198 7.33317 21.8665 7.33317H10.1332ZM22.9998 9.33317C23.4419 9.33317 23.8658 9.50877 24.1783 9.82133C24.4909 10.1339 24.6665 10.5578 24.6665 10.9998C24.6665 11.4419 24.4909 11.8658 24.1783 12.1783C23.8658 12.4909 23.4419 12.6665 22.9998 12.6665C22.5578 12.6665 22.1339 12.4909 21.8213 12.1783C21.5088 11.8658 21.3332 11.4419 21.3332 10.9998C21.3332 10.5578 21.5088 10.1339 21.8213 9.82133C22.1339 9.50877 22.5578 9.33317 22.9998 9.33317ZM15.9998 11.3332C17.7679 11.3332 19.4636 12.0355 20.7139 13.2858C21.9641 14.536 22.6665 16.2317 22.6665 17.9998C22.6665 19.7679 21.9641 21.4636 20.7139 22.7139C19.4636 23.9641 17.7679 24.6665 15.9998 24.6665C14.2317 24.6665 12.536 23.9641 11.2858 22.7139C10.0355 21.4636 9.33317 19.7679 9.33317 17.9998C9.33317 16.2317 10.0355 14.536 11.2858 13.2858C12.536 12.0355 14.2317 11.3332 15.9998 11.3332ZM15.9998 13.9998C14.939 13.9998 13.9216 14.4213 13.1714 15.1714C12.4213 15.9216 11.9998 16.939 11.9998 17.9998C11.9998 19.0607 12.4213 20.0781 13.1714 20.8283C13.9216 21.5784 14.939 21.9998 15.9998 21.9998C17.0607 21.9998 18.0781 21.5784 18.8283 20.8283C19.5784 20.0781 19.9998 19.0607 19.9998 17.9998C19.9998 16.939 19.5784 15.9216 18.8283 15.1714C18.0781 14.4213 17.0607 13.9998 15.9998 13.9998Z" fill="#37455D"/>
<g clip-path="url(#clip0_667_476)">
<path d="M75 6H47C46.4696 6 45.9609 6.21071 45.5858 6.58579C45.2107 6.96086 45 7.46957 45 8V28C45 28.5304 45.2107 29.0391 45.5858 29.4142C45.9609 29.7893 46.4696 30 47 30H75C75.5304 30 76.0391 29.7893 76.4142 29.4142C76.7893 29.0391 77 28.5304 77 28V8C77 7.46957 76.7893 6.96086 76.4142 6.58579C76.0391 6.21071 75.5304 6 75 6ZM73.46 28H48.66L55.66 20.76L54.22 19.37L47 26.84V9.52L59.43 21.89C59.8047 22.2625 60.3116 22.4716 60.84 22.4716C61.3684 22.4716 61.8753 22.2625 62.25 21.89L75 9.21V26.71L67.64 19.35L66.23 20.76L73.46 28ZM48.31 8H73.38L60.84 20.47L48.31 8Z" fill="#37455D"/>
</g>
<path d="M114.606 8.84232C113.422 7.64614 112.012 6.69773 110.457 6.05239C108.902 5.40705 107.235 5.07771 105.552 5.08357C98.4992 5.08357 92.7513 10.8315 92.7513 17.884C92.7513 20.1444 93.3454 22.3402 94.4563 24.2777L92.6479 30.9169L99.4292 29.1344C101.302 30.1548 103.408 30.6973 105.552 30.6973C112.604 30.6973 118.352 24.9494 118.352 17.8969C118.352 14.474 117.022 11.2577 114.606 8.84232ZM105.552 28.5273C103.64 28.5273 101.767 28.0107 100.127 27.0419L99.7392 26.8094L95.7092 27.8686L96.7813 23.9419L96.5229 23.5415C95.4609 21.8455 94.8969 19.8851 94.8954 17.884C94.8954 12.0198 99.6746 7.24066 105.539 7.24066C108.38 7.24066 111.054 8.35149 113.056 10.3665C114.048 11.3533 114.833 12.527 115.368 13.8197C115.902 15.1123 116.174 16.4982 116.169 17.8969C116.195 23.7611 111.416 28.5273 105.552 28.5273ZM111.39 20.5707C111.067 20.4157 109.491 19.6407 109.207 19.5244C108.91 19.4211 108.703 19.3694 108.484 19.6794C108.264 20.0023 107.657 20.7257 107.476 20.9323C107.295 21.1519 107.102 21.1777 106.779 21.0098C106.456 20.8548 105.423 20.5061 104.208 19.4211C103.253 18.5686 102.62 17.5223 102.426 17.1994C102.245 16.8765 102.4 16.7086 102.568 16.5407C102.71 16.3986 102.891 16.1661 103.046 15.9852C103.201 15.8044 103.265 15.6623 103.369 15.4557C103.472 15.2361 103.42 15.0552 103.343 14.9002C103.265 14.7452 102.62 13.1694 102.361 12.5236C102.103 11.9036 101.832 11.9811 101.638 11.9682H101.018C100.798 11.9682 100.463 12.0457 100.165 12.3686C99.8813 12.6915 99.0546 13.4665 99.0546 15.0423C99.0546 16.6182 100.204 18.1423 100.359 18.349C100.514 18.5686 102.62 21.7977 105.823 23.1798C106.585 23.5157 107.179 23.7094 107.644 23.8515C108.406 24.0969 109.104 24.0582 109.659 23.9807C110.279 23.8902 111.558 23.2057 111.816 22.4565C112.088 21.7073 112.088 21.0744 111.997 20.9323C111.907 20.7902 111.713 20.7257 111.39 20.5707Z" fill="#37455D"/>
<defs>
<clipPath id="clip0_667_476">
<rect width="36" height="36" fill="white" transform="translate(43)"/>
</clipPath>
</defs>
</svg>
