<svg width="35" height="30" viewBox="0 0 35 30" fill="none" xmlns="http://www.w3.org/2000/svg">
<path d="M24.0625 0C21.8312 0 19.9063 1.31086 18.725 3.29588C20.6938 5.31835 21.875 8.08989 21.875 11.2734C21.875 12.3595 21.7437 13.3333 21.4812 14.3071C22.3125 14.7191 23.1437 15.0187 24.0625 15.0187C27.6938 15.0187 30.625 11.6479 30.625 7.52809C30.625 3.40824 27.6938 0.0374532 24.0625 0.0374532V0ZM10.9375 3.74532C7.30625 3.74532 4.375 7.1161 4.375 11.236C4.375 15.3558 7.30625 18.7266 10.9375 18.7266C14.5688 18.7266 17.5 15.3558 17.5 11.236C17.5 7.1161 14.5688 3.74532 10.9375 3.74532ZM31.7188 15.5805C29.8375 17.4906 27.2563 18.6517 24.325 18.7266C25.5063 20.1498 26.25 21.8727 26.25 23.7453V26.2172H35V20C35 18.0524 33.6437 16.367 31.7188 15.5431V15.5805ZM3.28125 19.3258C1.35625 20.1498 0 21.8352 0 23.7828V30H21.875V23.7828C21.875 21.8352 20.5187 20.1498 18.5938 19.3258C16.625 21.3109 13.9563 22.4719 10.9375 22.4719C7.91875 22.4719 5.25 21.2734 3.28125 19.3258Z" fill="#37455D"/>
</svg>
