<svg width="103" height="199" viewBox="0 0 103 199" fill="none" xmlns="http://www.w3.org/2000/svg">
<path d="M9.82015 196.158L16.9421 190.744L25.6584 184.123L51.0226 164.834L51.2098 164.966L51.2332 164.982L51.2487 164.999L75.3718 182.618L83.9795 188.902L91.1602 194.15L64.7219 66.3073L63.0148 66.3122L60.8395 66.3134L31.4787 66.3731L9.82015 196.158Z" fill="#37455D" stroke="#263238" stroke-linecap="round" stroke-linejoin="round"/>
<path d="M16.8997 191.691L25.6214 185.001L39.3466 66.2741L53.7211 66.0321L34.9332 66.1637L16.8997 191.691Z" fill="white" stroke="#263238" stroke-linecap="round" stroke-linejoin="round"/>
<path d="M61.8434 66.3067L61.8504 66.3386L75.9434 182.463L84.3284 188.733L63.9704 66.3361L63.9639 66.2884L61.8434 66.3067Z" fill="white" stroke="#263238" stroke-linecap="round" stroke-linejoin="round"/>
<path d="M3.75669 52.0964C3.75669 50.3427 0.833193 48.4615 1.0075 46.7556C1.1818 45.0497 4.43808 43.7743 4.7946 42.1003C5.15113 40.4263 2.67921 37.9393 3.21004 36.2972C3.74087 34.6551 7.17144 34.121 7.87657 32.5427C8.5817 30.9643 6.67231 28.0388 7.5359 26.5402C8.39948 25.0416 11.8697 25.2409 12.8759 23.8459C13.8821 22.4509 12.6303 19.1906 13.7791 17.9072C14.9279 16.6239 18.2872 17.5406 19.5627 16.3847C20.8383 15.2289 20.2758 11.7773 21.6702 10.7569C23.0646 9.73661 26.1466 11.3388 27.6361 10.47C29.1256 9.60109 29.2841 6.11761 30.8607 5.40816C32.4373 4.69871 35.1073 6.91474 36.7553 6.38066C38.4032 5.84658 39.2668 2.46673 40.9623 2.10802C42.6578 1.74931 44.7969 4.49943 46.5083 4.30014C48.2196 4.10086 49.7645 1 51.4996 1C53.2347 1 54.8035 4.12477 56.4989 4.30014C58.1944 4.47551 60.397 1.74931 62.0449 2.10802C63.6929 2.46673 64.6278 5.84658 66.2519 6.38066C67.8761 6.91474 70.5857 4.70668 72.1465 5.40816C73.7073 6.10964 73.9212 9.64892 75.3711 10.4461C76.821 11.2432 79.9505 9.71269 81.337 10.733C82.7235 11.7534 82.1689 15.205 83.4445 16.3608C84.7201 17.5167 88.0714 16.5999 89.2281 17.8833C90.3849 19.1667 89.1172 22.427 90.1314 23.822C91.1455 25.217 94.6077 25.0177 95.4713 26.5163C96.3349 28.0149 94.4255 30.9324 95.1307 32.5187C95.8358 34.105 99.2664 34.6232 99.7972 36.2812C100.328 37.9393 97.8561 40.3705 98.2126 42.0764C98.5691 43.7823 101.818 44.9939 101.992 46.7317C102.166 48.4694 99.2505 50.3188 99.2505 52.0725C99.2505 53.8262 102.174 55.7074 101.992 57.4133C101.81 59.1192 98.5691 60.3866 98.2126 62.0686C97.8561 63.7505 100.328 66.2296 99.7972 67.8637C99.2664 69.4979 95.8358 70.0479 95.1307 71.6183C94.4255 73.1886 96.3349 76.13 95.4713 77.6207C94.6077 79.1113 91.1376 78.92 90.1314 80.315C89.1252 81.71 90.377 84.9782 89.2281 86.2616C88.0793 87.545 84.7201 86.6204 83.4445 87.7842C82.1689 88.948 82.7314 92.3916 81.337 93.4119C79.9426 94.4323 76.8606 92.8221 75.3711 93.6909C73.8816 94.5598 73.7232 98.0513 72.1465 98.7607C70.5699 99.4702 67.892 97.2462 66.2519 97.7882C64.6119 98.3303 63.7404 101.694 62.0449 102.053C60.3494 102.412 58.2103 99.6615 56.4989 99.8608C54.7876 100.06 53.2427 103.161 51.4996 103.161C49.7566 103.161 48.2038 100.044 46.5083 99.8608C44.8128 99.6774 42.6102 102.412 40.9623 102.053C39.3144 101.694 38.3795 98.3143 36.7553 97.7803C35.1311 97.2462 32.4215 99.4542 30.8607 98.7528C29.2999 98.0513 29.1177 94.5598 27.6361 93.6909C26.1545 92.8221 23.0567 94.4243 21.6702 93.404C20.2837 92.3837 20.8383 88.94 19.5627 87.824C18.2872 86.708 14.9279 87.5849 13.7791 86.3015C12.6303 85.0181 13.89 81.7578 12.8759 80.3549C11.8618 78.9519 8.39948 79.1592 7.5359 77.6605C6.67231 76.1619 8.5817 73.2444 7.87657 71.6581C7.17144 70.0718 3.74087 69.5537 3.21004 67.9036C2.67921 66.2535 5.15113 63.8143 4.7946 62.1084C4.43808 60.4026 1.1897 59.1909 1.0154 57.4532C0.8411 55.7154 3.75669 53.8421 3.75669 52.0964Z" fill="white" stroke="#263238" stroke-linecap="round" stroke-linejoin="round"/>
<path d="M50.9198 92.7126C73.3603 92.7126 91.552 74.521 91.552 52.0804C91.552 29.6399 73.3603 11.4482 50.9198 11.4482C28.4792 11.4482 10.2876 29.6399 10.2876 52.0804C10.2876 74.521 28.4792 92.7126 50.9198 92.7126Z" fill="#B0D2D3" stroke="#263238" stroke-linecap="round" stroke-linejoin="round"/>
<path d="M86.7668 60.4229C91.4397 41.0331 79.5094 21.5263 60.1196 16.8533C40.7298 12.1804 21.223 24.1107 16.5501 43.5005C11.8771 62.8903 23.8074 82.3971 43.1972 87.0701C62.587 91.743 82.0938 79.8127 86.7668 60.4229Z" fill="#37455D"/>
<path d="M22.75 53.7861V41.2262H26.7246C27.367 41.1983 28.0049 41.3467 28.5689 41.6555C29.0479 41.9402 29.4216 42.3725 29.6341 42.8876C29.8818 43.5091 30.0008 44.1744 29.9838 44.8432C30.024 45.5742 29.8646 46.3023 29.5228 46.9497C29.2431 47.4407 28.8021 47.8199 28.2748 48.0229C27.697 48.2455 27.0814 48.3535 26.4623 48.3408H25.3017V53.7861H22.75ZM25.3097 46.5443H26.2079C26.5045 46.5627 26.8007 46.5024 27.0665 46.3694C27.1696 46.3078 27.2593 46.2261 27.3303 46.1291C27.4013 46.0322 27.4522 45.922 27.4798 45.805C27.5604 45.4801 27.5978 45.146 27.5911 44.8114C27.5957 44.4886 27.5664 44.1662 27.5037 43.8495C27.4596 43.6063 27.3228 43.3897 27.1221 43.2453C26.8423 43.0775 26.5175 42.9997 26.192 43.0228H25.3097V46.5443Z" fill="#E6C451"/>
<path d="M31.2158 53.7861V41.2262H34.4671C35.2034 41.2108 35.9378 41.3073 36.6452 41.5124C37.2155 41.6789 37.7101 42.0386 38.0442 42.5299C38.4011 43.1405 38.5698 43.8429 38.5292 44.549C38.5359 45.008 38.4933 45.4664 38.402 45.9163C38.323 46.2933 38.163 46.6487 37.933 46.9576C37.6877 47.2716 37.3642 47.5156 36.995 47.6651L38.7359 53.7861H36.1126L34.6738 48.0944H33.7755V53.7861H31.2158ZM33.7755 46.5761H34.5148C34.8523 46.5937 35.1887 46.5253 35.4925 46.3773C35.7299 46.2407 35.9104 46.0236 36.0013 45.7652C36.1038 45.4361 36.1522 45.0924 36.1444 44.7477C36.1748 44.2833 36.064 43.8205 35.8264 43.4202C35.6811 43.2535 35.4971 43.1251 35.2906 43.0461C35.0841 42.9671 34.8614 42.94 34.642 42.9671H33.7755V46.5761Z" fill="#E6C451"/>
<path d="M43.6643 53.9529C42.9041 53.9935 42.1476 53.8229 41.4783 53.4601C40.9438 53.1338 40.5371 52.6345 40.3257 52.0451C40.0746 51.3361 39.9561 50.587 39.9759 49.8352V45.1531C39.9554 44.4038 40.074 43.6572 40.3257 42.9511C40.5356 42.365 40.9432 41.8703 41.4783 41.552C42.1677 41.2351 42.9175 41.071 43.6763 41.071C44.435 41.071 45.1848 41.2351 45.8742 41.552C46.4098 41.8719 46.8194 42.3657 47.0348 42.9511C47.2834 43.6552 47.4019 44.3986 47.3846 45.1451V49.8272C47.3995 50.5788 47.2811 51.327 47.0348 52.0371C46.8203 52.6271 46.4109 53.1263 45.8742 53.4521C45.1975 53.8185 44.433 53.9917 43.6643 53.9529ZM43.6643 52.1087C43.9278 52.1324 44.1901 52.0525 44.3957 51.8861C44.5558 51.7193 44.6635 51.5093 44.7057 51.2819C44.7536 51.0197 44.7775 50.7536 44.7772 50.487V44.5489C44.7782 44.2823 44.7543 44.0162 44.7057 43.754C44.6617 43.5296 44.5541 43.3227 44.3957 43.1578C44.1901 42.9914 43.9278 42.9115 43.6643 42.9352C43.411 42.9149 43.1598 42.9948 42.9648 43.1578C42.8064 43.3227 42.6988 43.5296 42.6548 43.754C42.6034 44.0159 42.5767 44.282 42.5753 44.5489V50.487C42.575 50.7536 42.5989 51.0197 42.6468 51.2819C42.683 51.5096 42.7885 51.7206 42.9489 51.8861C43.1496 52.0501 43.4061 52.1298 43.6643 52.1087Z" fill="#E6C451"/>
<path d="M49.0938 53.786V41.2261H52.1622C53.0112 41.1904 53.8584 41.3312 54.6503 41.6395C55.2206 41.8915 55.6729 42.3523 55.9142 42.9273C56.1828 43.6431 56.307 44.4049 56.2799 45.169V49.7398C56.3058 50.5219 56.1816 51.3017 55.9142 52.0372C55.678 52.6177 55.2327 53.0886 54.6662 53.3567C53.8943 53.6781 53.0609 53.8247 52.2257 53.786H49.0938ZM51.6455 52.0054H52.194C52.5462 52.0342 52.8987 51.9537 53.2035 51.7748C53.3094 51.6973 53.398 51.5987 53.4637 51.4851C53.5294 51.3715 53.5707 51.2455 53.5851 51.115C53.6447 50.7525 53.6713 50.3854 53.6646 50.018V44.8431C53.6749 44.4903 53.6402 44.1377 53.5612 43.7938C53.5366 43.6756 53.4888 43.5635 53.4205 43.4639C53.3523 43.3643 53.2651 43.2791 53.1638 43.2135C52.8576 43.0645 52.5177 42.9987 52.178 43.0227H51.6455V52.0054Z" fill="#E6C451"/>
<path d="M61.5107 53.9531C60.741 53.9974 59.9738 53.8297 59.2929 53.4682C58.7662 53.1466 58.3716 52.6477 58.18 52.0612C57.9557 51.3356 57.8483 50.5789 57.862 49.8195V41.2263H60.3899V50.1693C60.3897 50.4754 60.4136 50.781 60.4614 51.0834C60.4955 51.3487 60.6029 51.5992 60.7714 51.8068C60.9772 51.9868 61.2413 52.086 61.5147 52.086C61.7881 52.086 62.0522 51.9868 62.2579 51.8068C62.4271 51.6003 62.5321 51.3489 62.56 51.0834C62.6012 50.7804 62.6225 50.475 62.6236 50.1693V41.2263H65.1515V49.8195C65.1698 50.5791 65.0623 51.3366 64.8335 52.0612C64.642 52.6455 64.2508 53.1437 63.7285 53.4682C63.0469 53.8278 62.2803 53.9954 61.5107 53.9531Z" fill="#E6C451"/>
<path d="M70.4219 53.9529C69.6503 53.993 68.8833 53.8109 68.212 53.4282C67.6754 53.0868 67.2737 52.5699 67.0753 51.9656C66.8475 51.2624 66.7374 50.5265 66.7494 49.7875V45.2723C66.7346 44.5122 66.8447 43.7549 67.0753 43.0306C67.2745 42.4309 67.6765 41.9193 68.212 41.5838C68.8865 41.2107 69.6522 41.0345 70.4219 41.0751C71.1533 41.0386 71.8818 41.1919 72.5364 41.5202C73.0363 41.8046 73.4214 42.2544 73.6255 42.7921C73.8456 43.4037 73.9534 44.05 73.9434 44.6999V45.7572H71.4633V44.6045C71.4634 44.3388 71.4475 44.0734 71.4156 43.8096C71.3936 43.5824 71.3051 43.3667 71.1612 43.1896C71.0643 43.101 70.9497 43.034 70.825 42.9929C70.7003 42.9518 70.5684 42.9375 70.4378 42.9511C70.303 42.9386 70.1671 42.9541 70.0385 42.9965C69.91 43.0389 69.7915 43.1073 69.6906 43.1975C69.5336 43.38 69.4316 43.6033 69.3964 43.8414C69.3563 44.1311 69.3378 44.4234 69.3408 44.7158V50.4234C69.3358 50.7327 69.3624 51.0417 69.4203 51.3455C69.461 51.5768 69.5753 51.7887 69.7462 51.9497C69.943 52.1021 70.1896 52.1758 70.4378 52.1563C70.5659 52.1691 70.6953 52.1545 70.8173 52.1133C70.9393 52.0722 71.0511 52.0056 71.1453 51.9179C71.2916 51.7322 71.3825 51.509 71.4076 51.274C71.4431 50.9918 71.4616 50.7078 71.4633 50.4234V49.1992H73.9434V50.169C73.9549 50.8288 73.85 51.4854 73.6334 52.1086C73.4358 52.6617 73.0578 53.1321 72.5603 53.4441C71.9104 53.8138 71.1686 53.9903 70.4219 53.9529Z" fill="#E6C451"/>
<path d="M76.6857 53.7862V43.1341H74.7461V41.2263H81.1532V43.1341H79.2454V53.7862H76.6857Z" fill="#E6C451"/>
<path d="M33.0763 74.8676C32.7938 74.7208 32.5273 74.545 32.2813 74.3429C31.9568 74.1016 31.6512 73.8358 31.3672 73.548C31.0709 73.2517 30.8046 72.9268 30.5723 72.5782H30.4371H30.2781C29.5171 72.6175 28.7601 72.4441 28.0921 72.0773C27.5563 71.7526 27.1491 71.2528 26.9394 70.6624C26.6879 69.9535 26.5693 69.2044 26.5897 68.4525V63.7704C26.5692 63.0211 26.6878 62.2745 26.9394 61.5684C27.1474 60.9832 27.5557 60.4904 28.0921 60.1773C28.7647 59.8254 29.5204 59.6633 30.2781 59.7083C31.0456 59.6718 31.8088 59.842 32.488 60.2011C33.0247 60.516 33.4351 61.0078 33.6486 61.5923C33.8972 62.2963 34.0157 63.0398 33.9984 63.7863V68.4525C34.0014 68.987 33.9454 69.5201 33.8315 70.0423C33.7393 70.4898 33.5582 70.9142 33.2989 71.2904C33.0377 71.6327 32.6965 71.9056 32.3052 72.0853L32.7265 72.5225C32.8644 72.6634 33.0104 72.7961 33.1637 72.92C33.2911 73.0365 33.4296 73.1403 33.5771 73.23L33.0763 74.8676ZM30.2781 70.718C30.5425 70.7378 30.8043 70.6553 31.0095 70.4875C31.1711 70.3218 31.2792 70.1113 31.3195 69.8834C31.3677 69.6211 31.3917 69.355 31.391 69.0884V63.1503C31.3922 62.8837 31.3683 62.6175 31.3195 62.3554C31.2773 62.1281 31.1696 61.9181 31.0095 61.7512C30.8013 61.5898 30.541 61.5106 30.2781 61.5287C30.0203 61.5115 29.7653 61.5909 29.5627 61.7512C29.4023 61.9168 29.2968 62.1277 29.2606 62.3554C29.2119 62.6175 29.1879 62.8837 29.1891 63.1503V69.0884C29.1884 69.355 29.2124 69.6211 29.2606 69.8834C29.2948 70.1117 29.4005 70.3232 29.5627 70.4875C29.7622 70.6543 30.0188 70.737 30.2781 70.718Z" fill="#E6C451"/>
<path d="M39.2607 72.5622C38.4902 72.6045 37.7229 72.434 37.0428 72.0694C36.5182 71.7475 36.1263 71.2483 35.9379 70.6624C35.7079 69.938 35.6004 69.1804 35.6199 68.4207V59.8354H38.1478V68.7784C38.1489 69.0842 38.1702 69.3895 38.2114 69.6925C38.2453 69.9603 38.3526 70.2134 38.5214 70.4239C38.617 70.5212 38.7326 70.5965 38.8603 70.6446C38.988 70.6927 39.1246 70.7123 39.2607 70.7021C39.3992 70.7136 39.5386 70.6946 39.6691 70.6465C39.7995 70.5985 39.9179 70.5225 40.0159 70.4239C40.1822 70.2127 40.2868 69.9595 40.3179 69.6925C40.3565 69.3894 40.3751 69.084 40.3736 68.7784V59.8354H42.9015V68.4525C42.921 69.2122 42.8135 69.9698 42.5835 70.6942C42.3951 71.2801 42.0031 71.7793 41.4785 72.1012C40.7953 72.4548 40.0282 72.6143 39.2607 72.5622Z" fill="#E6C451"/>
<path d="M43.9746 72.4271L46.4071 59.8752H49.245L51.6297 72.4271H49.245L48.7919 69.6687H46.8125L46.3276 72.4271H43.9746ZM47.0907 68.1027H48.5613L47.7664 63.0311L47.0907 68.1027Z" fill="#E6C451"/>
<path d="M52.8457 72.4271V59.8354H55.3974V70.6544H58.3466V72.4271H52.8457Z" fill="#E6C451"/>
<path d="M59.4917 72.4271V59.8354H62.0752V72.4271H59.4917Z" fill="#E6C451"/>
<path d="M65.1354 72.4271V61.7433H63.1958V59.8354H69.6188V61.7433H67.711V72.4271H65.1354Z" fill="#E6C451"/>
<path d="M72.4093 72.4271V67.4509L69.9609 59.8752H72.3457L73.6971 64.2871L74.9531 59.8752H77.2743L74.8895 67.4509V72.4271H72.4093Z" fill="#E6C451"/>
<path d="M33.1955 29.1514L34.0541 31.7826H36.8125L34.5787 33.4042L35.4293 36.0275L33.1955 34.4058L30.9618 36.0275L31.8124 33.4042L29.5786 31.7826H32.345L33.1955 29.1514Z" fill="#E6C451"/>
<path d="M42.8698 29.1514L43.7204 31.7826H46.4868L44.2451 33.4042L45.1036 36.0275L42.8698 34.4058L40.6361 36.0275L41.4867 33.4042L39.2529 31.7826H42.0113L42.8698 29.1514Z" fill="#E6C451"/>
<path d="M52.5359 29.1514L53.3944 31.7826H56.1528L53.919 33.4042L54.7696 36.0275L52.5359 34.4058L50.3021 36.0275L51.1606 33.4042L48.9189 31.7826H51.6853L52.5359 29.1514Z" fill="#E6C451"/>
<path d="M62.2102 29.1514L63.0607 31.7826H65.8271L63.5934 33.4042L64.4439 36.0275L62.2102 34.4058L59.9764 36.0275L60.827 33.4042L58.5933 31.7826H61.3596L62.2102 29.1514Z" fill="#E6C451"/>
<path d="M71.8845 29.1514L72.7351 31.7826H75.4935L73.2597 33.4042L74.1182 36.0275L71.8845 34.4058L69.6428 36.0275L70.5013 33.4042L68.2676 31.7826H71.026L71.8845 29.1514Z" fill="#E6C451"/>
</svg>
