<svg width="94" height="94" viewBox="0 0 94 94" fill="none" xmlns="http://www.w3.org/2000/svg">
<path d="M7.17788 7.17788V86.1346H86.1346V7.17788H7.17788ZM3.58894 0H89.7236C90.6754 0 91.5883 0.378119 92.2613 1.05118C92.9344 1.72423 93.3125 2.6371 93.3125 3.58894V89.7236C93.3125 90.6754 92.9344 91.5883 92.2613 92.2613C91.5883 92.9344 90.6754 93.3125 89.7236 93.3125H3.58894C2.6371 93.3125 1.72423 92.9344 1.05118 92.2613C0.378119 91.5883 0 90.6754 0 89.7236V3.58894C0 2.6371 0.378119 1.72423 1.05118 1.05118C1.72423 0.378119 2.6371 0 3.58894 0Z" fill="white"/>
<path d="M32.3002 21.5337C37.0855 21.5337 39.4781 23.9263 39.4781 28.7116C39.4781 33.4968 37.0855 35.8895 32.3002 35.8895C27.515 35.8895 25.1223 33.4968 25.1223 28.7116C25.1223 23.9263 27.515 21.5337 32.3002 21.5337ZM10.0272 87.5918L4.328 83.2276L28.5677 51.5947C29.4273 50.472 30.4997 49.5296 31.7235 48.8213C32.9474 48.1131 34.2987 47.6528 35.7005 47.4668C37.1022 47.2809 38.5268 47.3728 39.893 47.7375C41.2592 48.1021 42.5402 48.7323 43.6628 49.592L43.871 49.7571L57.6525 60.8757C58.394 61.4725 59.3422 61.7503 60.2885 61.648C61.2348 61.5457 62.1017 61.0716 62.6986 60.3302L86.9239 30.061L92.5227 34.54L68.3188 64.802L68.2901 64.8379C67.4025 65.9393 66.3065 66.855 65.0648 67.5326C63.8232 68.2103 62.4601 68.6366 61.0536 68.7872C59.6471 68.9379 58.2247 68.8099 56.8676 68.4106C55.5106 68.0113 54.2456 67.3485 53.1448 66.4601L39.3633 55.3487L39.2915 55.2913C38.5362 54.7148 37.5831 54.4613 36.6412 54.5864C35.6993 54.7116 34.8455 55.2051 34.267 55.9588L10.0272 87.5918Z" fill="white"/>
</svg>
