<svg width="169" height="146" viewBox="0 0 169 146" fill="none" xmlns="http://www.w3.org/2000/svg">
<path d="M99.1074 145H168V97.1103H99.1074L99.1074 145Z" fill="#E6C451" stroke="#263238" stroke-linecap="round" stroke-linejoin="round"/>
<path d="M98.9993 144.873H121.182L121.182 96.9829H98.9993V144.873Z" fill="#37455D" stroke="#37455D" stroke-linecap="round" stroke-linejoin="round"/>
<path d="M153.588 106.868H163.85V101.986H153.588V106.868Z" stroke="#263238" stroke-linecap="round" stroke-linejoin="round"/>
<path d="M50.3676 144.873H119.26L119.26 96.9829H50.3676L50.3676 144.873Z" fill="#E6C451" stroke="#263238" stroke-linecap="round" stroke-linejoin="round"/>
<path d="M50.374 144.873H72.5564L72.5564 96.9829H50.374L50.374 144.873Z" fill="#37455D" stroke="#37455D" stroke-linecap="round" stroke-linejoin="round"/>
<path d="M104.433 106.868H114.694V101.986H104.433V106.868Z" stroke="#263238" stroke-linecap="round" stroke-linejoin="round"/>
<path d="M1.00019 144.873H69.8928L69.8928 96.9829H1.00019L1.00019 144.873Z" fill="#E6C451" stroke="#263238" stroke-linecap="round" stroke-linejoin="round"/>
<path d="M0.999996 144.873H23.1824L23.1824 96.9829H0.999996L0.999996 144.873Z" fill="#37455D" stroke="#37455D" stroke-linecap="round" stroke-linejoin="round"/>
<path d="M9.11558 110.045H15.0667L15.0667 96.9828H9.11558L9.11558 110.045Z" fill="white" stroke="#263238" stroke-linecap="round" stroke-linejoin="round"/>
<path d="M56.1066 106.868H66.3682V101.986H56.1066V106.868Z" stroke="#263238" stroke-linecap="round" stroke-linejoin="round"/>
<path d="M75.5476 96.9448H144.44V49.0552L75.5476 49.0552L75.5476 96.9448Z" fill="#E6C451" stroke="#263238" stroke-linecap="round" stroke-linejoin="round"/>
<path d="M75.4009 96.9294H97.5833L97.5833 49.0398H75.4009V96.9294Z" fill="#37455D" stroke="#37455D" stroke-linecap="round" stroke-linejoin="round"/>
<path d="M57.9773 48.8896L126.87 48.8896L126.87 0.999985L57.9773 0.999985L57.9773 48.8896Z" fill="#E6C451" stroke="#263238" stroke-linecap="round" stroke-linejoin="round"/>
<path d="M57.8345 48.9478H80.0168L80.0168 1.05809H57.8345L57.8345 48.9478Z" fill="#37455D" stroke="#37455D" stroke-linecap="round" stroke-linejoin="round"/>
<path d="M65.9439 14.1204H71.895V1.05822H65.9439V14.1204Z" fill="white" stroke="#263238" stroke-linecap="round" stroke-linejoin="round"/>
<path d="M25.2331 96.9448H94.1257L94.1257 49.0552L25.2331 49.0552L25.2331 96.9448Z" fill="#E6C451" stroke="#37455D" stroke-linecap="round" stroke-linejoin="round"/>
<path d="M25.1223 96.9294H47.3047L47.3047 49.0398H25.1223L25.1223 96.9294Z" fill="#37455D" stroke="#37455D" stroke-linecap="round" stroke-linejoin="round"/>
<path d="M33.2381 62.0972H39.1892V49.035H33.2381V62.0972Z" fill="white" stroke="#263238" stroke-linecap="round" stroke-linejoin="round"/>
<path d="M83.086 77.0627H90.0352V49.563H83.086V77.0627Z" stroke="#263238" stroke-linecap="round" stroke-linejoin="round"/>
</svg>
