<svg width="165" height="30" viewBox="0 0 165 30" fill="none" xmlns="http://www.w3.org/2000/svg">
<path d="M27 0C22.875 0 19.5 3.375 19.5 7.5C19.5 11.4 17.55 14.925 14.475 17.475C12.9375 18.75 12 20.55 12 22.5H42C42 20.55 41.1 18.75 39.525 17.475C36.45 14.925 34.5 11.4 34.5 7.5C34.5 3.375 31.1625 0 27 0ZM23.25 26.25C23.25 28.3125 24.9375 30 27 30C29.0625 30 30.75 28.3125 30.75 26.25H23.25Z" fill="#37455D"/>
<path d="M89.0625 0C86.8312 0 84.9063 1.31086 83.725 3.29588C85.6938 5.31835 86.875 8.08989 86.875 11.2734C86.875 12.3595 86.7437 13.3333 86.4812 14.3071C87.3125 14.7191 88.1437 15.0187 89.0625 15.0187C92.6938 15.0187 95.625 11.6479 95.625 7.52809C95.625 3.40824 92.6938 0.0374532 89.0625 0.0374532V0ZM75.9375 3.74532C72.3063 3.74532 69.375 7.1161 69.375 11.236C69.375 15.3558 72.3063 18.7266 75.9375 18.7266C79.5688 18.7266 82.5 15.3558 82.5 11.236C82.5 7.1161 79.5688 3.74532 75.9375 3.74532ZM96.7188 15.5805C94.8375 17.4906 92.2563 18.6517 89.325 18.7266C90.5063 20.1498 91.25 21.8727 91.25 23.7453V26.2172H100V20C100 18.0524 98.6437 16.367 96.7188 15.5431V15.5805ZM68.2812 19.3258C66.3563 20.1498 65 21.8352 65 23.7828V30H86.875V23.7828C86.875 21.8352 85.5187 20.1498 83.5938 19.3258C81.625 21.3109 78.9563 22.4719 75.9375 22.4719C72.9187 22.4719 70.25 21.2734 68.2812 19.3258Z" fill="#37455D"/>
<path d="M136.13 0L134.259 4.45137C133.885 4.56359 133.549 4.75062 133.212 4.93766L128.761 3.06733L126.067 5.7606L127.938 10.212C127.751 10.586 127.601 10.8853 127.451 11.2594L123 13.1297V16.8703L127.451 18.7406C127.601 19.1147 127.751 19.414 127.938 19.788L126.067 24.2394L128.761 26.9327L133.212 25.0623C133.549 25.212 133.885 25.399 134.259 25.5486L136.13 30H139.87L141.741 25.5486C142.077 25.399 142.451 25.2494 142.788 25.0623L147.239 26.9327L149.933 24.2394L148.062 19.788C148.212 19.4514 148.399 19.0773 148.549 18.7406L153 16.8703V13.1297L148.549 11.2594C148.436 10.9227 148.249 10.5486 148.062 10.212L149.933 5.7606L147.239 3.06733L142.788 4.93766C142.451 4.78803 142.077 4.601 141.741 4.45137L139.87 0L136.13 0ZM138 9.35162C141.105 9.35162 143.611 11.8579 143.611 14.9626C143.611 18.0673 141.105 20.5736 138 20.5736C134.895 20.5736 132.389 18.0673 132.389 14.9626C132.389 11.8579 134.895 9.35162 138 9.35162Z" fill="#37455D"/>
</svg>
