<svg xmlns="http://www.w3.org/2000/svg" xmlns:xlink="http://www.w3.org/1999/xlink" width="1920" zoomAndPan="magnify" viewBox="0 0 1440 809.999993" height="1080" preserveAspectRatio="xMidYMid meet" version="1.0"><defs><g/><clipPath id="96d3a1be0c"><path d="M 469.433594 295.480469 L 677.933594 295.480469 L 677.933594 512 L 469.433594 512 Z M 469.433594 295.480469 " clip-rule="nonzero"/></clipPath><clipPath id="3cc581cdde"><path d="M 478 385 L 567 385 L 567 471 L 478 471 Z M 478 385 " clip-rule="nonzero"/></clipPath><clipPath id="231a71f28f"><path d="M 497.511719 378 L 571.777344 401.84375 L 548.621094 473.96875 L 474.355469 450.125 Z M 497.511719 378 " clip-rule="nonzero"/></clipPath><clipPath id="50d144aa1f"><path d="M 497.511719 378 L 571.777344 401.84375 L 548.621094 473.96875 L 474.355469 450.125 Z M 497.511719 378 " clip-rule="nonzero"/></clipPath></defs><g clip-path="url(#96d3a1be0c)"><path fill="#e59e53" d="M 676.242188 341.269531 L 575.289062 296.015625 C 574.339844 295.589844 573.390625 295.589844 572.445312 296.015625 L 471.492188 341.269531 C 470.867188 341.550781 470.367188 341.976562 469.996094 342.554688 C 469.621094 343.128906 469.433594 343.757812 469.433594 344.445312 L 469.433594 462.800781 C 469.433594 463.488281 469.621094 464.117188 469.996094 464.695312 C 470.367188 465.269531 470.867188 465.695312 471.492188 465.976562 L 572.445312 511.230469 C 573.390625 511.65625 574.339844 511.65625 575.289062 511.230469 L 676.242188 465.976562 C 676.867188 465.695312 677.367188 465.269531 677.738281 464.695312 C 678.113281 464.117188 678.296875 463.488281 678.296875 462.800781 L 678.296875 344.445312 C 678.296875 343.757812 678.113281 343.128906 677.738281 342.554688 C 677.367188 341.976562 676.867188 341.550781 676.242188 341.269531 Z M 570.386719 502.679688 L 476.398438 460.546875 L 476.398438 350.058594 L 570.386719 392.191406 Z M 573.867188 386.121094 L 481.15625 344.5625 L 573.867188 303.007812 L 666.574219 344.5625 Z M 671.335938 460.546875 L 577.347656 502.679688 L 577.347656 392.191406 L 671.335938 350.058594 Z M 671.335938 460.546875 " fill-opacity="1" fill-rule="nonzero"/></g><g clip-path="url(#3cc581cdde)"><g clip-path="url(#231a71f28f)"><g clip-path="url(#50d144aa1f)"><path fill="#e59e53" d="M 501.828125 388.949219 C 502.996094 388.351562 503.910156 390.125 502.742188 390.726562 C 500.925781 391.660156 501.609375 394.75 499.890625 394.335938 C 497.996094 393.878906 500.1875 389.792969 501.828125 388.949219 Z M 486.875 443.476562 C 489.039062 444.171875 487.984375 447.460938 485.820312 446.765625 C 483.65625 446.074219 484.710938 442.785156 486.875 443.476562 Z M 540.304688 460.632812 C 538.140625 459.9375 537.082031 463.226562 539.25 463.921875 C 541.414062 464.617188 542.46875 461.328125 540.304688 460.632812 Z M 516.203125 427.132812 L 481.632812 443.03125 C 481.015625 443.328125 480.863281 443.933594 481.214844 444.597656 L 483.910156 449.855469 C 484.183594 450.351562 484.800781 450.523438 485.339844 450.242188 L 518.207031 431.488281 Z M 519.289062 433.847656 L 486.253906 452.671875 C 484.46875 453.445312 482.4375 452.691406 481.539062 450.898438 L 478.769531 445.5 C 477.929688 443.863281 478.652344 441.554688 480.554688 440.683594 L 515.125 424.785156 L 511.617188 417.164062 C 502.613281 416.707031 494.464844 404.59375 495.445312 394.484375 C 496.828125 380.226562 511.902344 383.507812 518.25 395.855469 C 521.003906 401.210938 522.1875 408.484375 519.070312 413.332031 L 523.421875 420.972656 L 533.308594 416.421875 L 535.855469 408.734375 C 536.355469 407.21875 537.378906 406.089844 538.832031 405.445312 L 556.054688 397.808594 C 557.382812 397.21875 558.5 397.878906 559.1875 399.152344 C 559.867188 400.382812 560.667969 401.832031 558.742188 402.992188 L 549.039062 408.839844 L 559.371094 404.261719 C 560.476562 403.769531 561.796875 404.234375 562.347656 405.3125 L 562.34375 405.3125 C 563.125 406.742188 564.230469 408.355469 562.113281 409.605469 L 552.378906 415.335938 L 562.78125 410.851562 C 564.117188 410.277344 565.210938 410.941406 565.890625 412.195312 C 566.574219 413.433594 567.382812 414.902344 565.429688 416.054688 L 549.195312 425.613281 C 547.828125 426.417969 546.3125 426.59375 544.789062 426.121094 L 537.054688 423.710938 L 527.949219 428.910156 L 546.992188 462.316406 C 547.769531 464.113281 546.996094 466.164062 545.207031 467.039062 L 539.816406 469.808594 C 537.996094 470.644531 535.84375 469.839844 535.007812 468.023438 Z M 526.667969 426.664062 L 536.261719 421.1875 C 536.585938 421.003906 536.957031 420.972656 537.289062 421.078125 L 545.558594 423.648438 C 546.371094 423.902344 547.140625 423.8125 547.878906 423.378906 L 563.9375 413.921875 C 564.527344 413.574219 564.058594 413.082031 563.558594 413.335938 L 549.53125 419.382812 C 547.714844 420.167969 547.324219 418.761719 546.738281 417.621094 C 546.304688 416.777344 546.609375 415.726562 547.425781 415.246094 L 560.519531 407.53125 C 561.117188 407.179688 560.621094 406.542969 560 406.820312 L 546.230469 412.921875 C 544.40625 413.726562 544.007812 412.304688 543.417969 411.160156 C 542.988281 410.324219 543.285156 409.289062 544.09375 408.800781 L 557.203125 400.898438 C 557.847656 400.507812 557.363281 400.03125 556.859375 400.292969 L 539.882812 407.820312 C 539.101562 408.164062 538.578125 408.738281 538.3125 409.542969 L 535.589844 417.769531 C 535.46875 418.140625 535.195312 418.417969 534.859375 418.554688 L 524.707031 423.222656 Z M 518.4375 393.628906 C 516.75 393.886719 516.359375 391.320312 518.046875 391.0625 C 528.339844 389.488281 538.859375 392.546875 546.710938 399.390625 C 547.996094 400.507812 546.289062 402.464844 545.007812 401.347656 C 537.734375 395.003906 527.976562 392.160156 518.4375 393.628906 Z M 556.128906 422.972656 C 555.964844 421.28125 558.546875 421.035156 558.710938 422.730469 C 559.890625 434.996094 554.617188 447 544.777344 454.429688 C 543.417969 455.453125 541.859375 453.386719 543.210938 452.359375 C 552.324219 445.484375 557.226562 434.335938 556.128906 422.972656 Z M 529.027344 458.523438 C 530.703125 458.234375 531.144531 460.785156 529.464844 461.074219 C 517.148438 463.210938 504.597656 458.710938 496.476562 449.210938 C 495.371094 447.917969 497.335938 446.238281 498.441406 447.53125 C 505.945312 456.308594 517.648438 460.511719 529.027344 458.523438 Z M 491.46875 433.953125 C 491.875 435.605469 489.363281 436.226562 488.957031 434.574219 C 486.457031 424.441406 488.578125 413.742188 494.703125 405.277344 C 495.707031 403.890625 497.804688 405.414062 496.804688 406.792969 C 491.128906 414.636719 489.15625 424.558594 491.46875 433.953125 Z M 513.644531 415.386719 L 537.351562 466.9375 C 537.6875 467.59375 538.300781 467.699219 538.917969 467.355469 L 544.230469 464.628906 C 544.722656 464.335938 544.832031 463.730469 544.515625 463.15625 L 516.417969 413.898438 C 515.472656 412.246094 518.488281 412.046875 518.324219 405.808594 C 517.9375 390.988281 499.476562 379.804688 498.027344 394.738281 C 497.128906 404.011719 505.097656 414.917969 512.386719 414.582031 C 512.949219 414.554688 513.445312 414.890625 513.644531 415.386719 Z M 522.667969 409.65625 C 520.960938 409.734375 520.847656 407.140625 522.554688 407.0625 C 526.53125 406.886719 530.488281 407.976562 533.835938 410.15625 C 535.265625 411.085938 533.851562 413.253906 532.425781 412.324219 C 529.53125 410.441406 526.125 409.503906 522.667969 409.65625 Z M 539.878906 426.816406 C 539.957031 425.117188 542.539062 425.230469 542.460938 426.933594 C 542.246094 431.847656 540.171875 436.464844 536.644531 439.867188 C 535.414062 441.050781 533.617188 439.183594 534.84375 438 C 537.886719 435.070312 539.699219 431.042969 539.878906 426.816406 Z M 522.023438 442.5625 C 523.722656 442.707031 523.5 445.289062 521.800781 445.144531 C 517.992188 444.816406 514.367188 443.363281 511.398438 440.960938 C 510.074219 439.890625 511.703125 437.878906 513.027344 438.949219 C 515.578125 441.011719 518.742188 442.285156 522.023438 442.5625 Z M 506.9375 427.089844 C 507.035156 428.792969 504.453125 428.941406 504.351562 427.242188 C 504.15625 423.875 504.855469 420.546875 506.375 417.523438 C 507.140625 416 509.449219 417.160156 508.6875 418.679688 C 507.378906 421.28125 506.769531 424.191406 506.9375 427.089844 Z M 498.824219 397.015625 C 498.765625 395.707031 500.75 395.613281 500.8125 396.921875 C 501.039062 401.78125 503.839844 407.0625 507.714844 409.957031 C 508.769531 410.742188 507.574219 412.339844 506.523438 411.554688 C 502.167969 408.308594 499.089844 402.480469 498.824219 397.015625 Z M 498.824219 397.015625 " fill-opacity="1" fill-rule="nonzero"/></g></g></g><path stroke-linecap="butt" transform="matrix(0.683645, 0.308431, -0.308431, 0.683645, 517.80958, 322.206889)" fill="none" stroke-linejoin="miter" d="M -0.00202381 4.000822 L 146.805073 4.002839 " stroke="#e59e53" stroke-width="8" stroke-opacity="1" stroke-miterlimit="4"/><path stroke-linecap="butt" transform="matrix(0.683645, 0.308431, -0.308431, 0.683645, 541.517451, 311.311382)" fill="none" stroke-linejoin="miter" d="M 0.00223863 4.000327 L 146.807194 3.997597 " stroke="#e59e53" stroke-width="8" stroke-opacity="1" stroke-miterlimit="4"/><path stroke-linecap="round" transform="matrix(-0.00533303, 0.749981, -0.749981, -0.00533303, 619.122167, 372.228253)" fill="none" stroke-linejoin="miter" d="M 4.000242 3.999129 L 23.146554 3.998402 " stroke="#e59e53" stroke-width="8" stroke-opacity="1" stroke-miterlimit="4"/><path stroke-linecap="round" transform="matrix(-0.0164959, 0.749819, -0.749819, -0.0164959, 642.819046, 359.061828)" fill="none" stroke-linejoin="miter" d="M 4.001297 3.999814 L 25.949352 4.001454 " stroke="#e59e53" stroke-width="8" stroke-opacity="1" stroke-miterlimit="4"/><path stroke-linecap="round" transform="matrix(0.678962, -0.318608, 0.318608, 0.678962, 614.067863, 387.159903)" fill="none" stroke-linejoin="miter" d="M 4.000406 4.000552 L 32.721762 3.99836 " stroke="#e59e53" stroke-width="8" stroke-opacity="1" stroke-miterlimit="4"/><path stroke-linecap="round" transform="matrix(0.67161, -0.333827, 0.333827, 0.67161, 582.486889, 484.362644)" fill="none" stroke-linejoin="miter" d="M 3.998384 4.000788 L 24.798527 3.998306 " stroke="#e59e53" stroke-width="8" stroke-opacity="1" stroke-miterlimit="4"/><g fill="#37455d" fill-opacity="1"><g transform="translate(727.102143, 391.135002)"><g><path d="M 22.742188 -1.679688 L 22.742188 -13.660156 L 17.210938 -13.660156 L 17.210938 -5.457031 C 16.714844 -5.378906 16.179688 -5.304688 15.683594 -5.304688 C 5.152344 -5.304688 4.65625 -21.597656 15.683594 -21.980469 C 18.585938 -22.058594 20.339844 -21.445312 21.410156 -20.988281 L 22.058594 -26.523438 C 21.5625 -26.675781 18.929688 -27.628906 15.683594 -27.515625 C -3.242188 -26.828125 -2.328125 0.152344 15.683594 0.152344 C 18.277344 0.152344 20.644531 -0.496094 22.742188 -1.679688 Z M 22.742188 -1.679688 "/></g></g></g><g fill="#37455d" fill-opacity="1"><g transform="translate(759.152803, 391.135002)"><g><path d="M 16.179688 0.382812 C 34.957031 0.382812 34.957031 -27.742188 16.179688 -27.742188 C -2.59375 -27.742188 -2.59375 0.382812 16.179688 0.382812 Z M 16.179688 -5.265625 C 5.265625 -5.265625 5.265625 -22.132812 16.179688 -22.132812 C 27.09375 -22.132812 27.09375 -5.265625 16.179688 -5.265625 Z M 16.179688 -5.265625 "/></g></g></g><g fill="#37455d" fill-opacity="1"><g transform="translate(797.842146, 391.135002)"><g><path d="M 22.628906 -9.503906 L 22.628906 -27.285156 L 17.210938 -27.285156 L 17.210938 -9.539062 C 17.210938 -3.816406 8.355469 -3.816406 8.355469 -9.539062 L 8.355469 -27.285156 L 2.898438 -27.285156 L 2.898438 -9.503906 C 2.898438 3.472656 22.628906 3.472656 22.628906 -9.503906 Z M 22.628906 -9.503906 "/></g></g></g><g fill="#37455d" fill-opacity="1"><g transform="translate(829.816491, 391.135002)"><g><path d="M 16.636719 0 L 22.820312 0 L 16.484375 -11.257812 C 24.5 -13.585938 23.546875 -27.285156 13.8125 -27.285156 L 3.054688 -27.285156 L 3.054688 0 L 8.511719 0 L 8.511719 -10.417969 L 11.144531 -10.417969 Z M 8.511719 -15.722656 L 8.511719 -21.828125 L 13.316406 -21.828125 C 17.019531 -21.828125 17.019531 -15.722656 13.316406 -15.722656 Z M 8.511719 -15.722656 "/></g></g></g><g fill="#37455d" fill-opacity="1"><g transform="translate(859.577951, 391.135002)"><g><path d="M 15.570312 -15.722656 L 4.808594 -27.703125 L 3.054688 -27.703125 L 3.054688 0 L 8.585938 0 L 8.585938 -15.226562 L 15.570312 -7.898438 L 22.554688 -15.226562 L 22.515625 0 L 28.046875 0 L 28.046875 -27.703125 L 26.332031 -27.703125 Z M 15.570312 -15.722656 "/></g></g></g><g fill="#37455d" fill-opacity="1"><g transform="translate(897.084537, 391.135002)"><g><path d="M 17.171875 0 L 17.171875 -5.457031 L 8.511719 -5.457031 L 8.511719 -10.914062 L 15.683594 -10.914062 L 15.683594 -16.371094 L 8.511719 -16.371094 L 8.511719 -21.828125 L 16.714844 -21.828125 L 16.714844 -27.285156 L 3.054688 -27.285156 L 3.054688 0 Z M 17.171875 0 "/></g></g></g><g fill="#37455d" fill-opacity="1"><g transform="translate(922.687286, 391.135002)"><g><path d="M 13.011719 0 L 13.011719 -21.828125 L 19.804688 -21.828125 L 19.804688 -27.246094 L 0.761719 -27.246094 L 0.761719 -21.828125 L 7.554688 -21.828125 L 7.554688 0 Z M 13.011719 0 "/></g></g></g><g fill="#e59e53" fill-opacity="0.4"><g transform="translate(710.964067, 439.676399)"><g><path d="M 8.210938 0 L 8.210938 -26.328125 L 2.945312 -26.328125 L 2.945312 0 Z M 8.210938 0 "/></g></g></g><g fill="#e59e53" fill-opacity="0.4"><g transform="translate(728.301799, 439.676399)"><g><path d="M 8.210938 -14.324219 L 21.539062 0.550781 L 22.9375 0.550781 L 22.9375 -26.289062 L 17.636719 -26.289062 L 17.636719 -11.414062 L 4.34375 -26.878906 L 2.945312 -26.878906 L 2.945312 0 L 8.210938 0 Z M 8.210938 -14.324219 "/></g></g></g><g fill="#e59e53" fill-opacity="0.4"><g transform="translate(760.361215, 439.676399)"><g><path d="M 11.121094 0.550781 L 12.296875 0.550781 L 23.195312 -26.328125 L 17.121094 -26.328125 L 13.585938 -17.378906 L 11.707031 -12.113281 L 9.792969 -17.5625 L 6.296875 -26.328125 L 0.222656 -26.328125 Z M 11.121094 0.550781 "/></g></g></g><g fill="#e59e53" fill-opacity="0.4"><g transform="translate(789.954752, 439.676399)"><g><path d="M 16.570312 0 L 16.570312 -5.265625 L 8.210938 -5.265625 L 8.210938 -10.53125 L 15.132812 -10.53125 L 15.132812 -15.796875 L 8.210938 -15.796875 L 8.210938 -21.0625 L 16.128906 -21.0625 L 16.128906 -26.328125 L 2.945312 -26.328125 L 2.945312 0 Z M 16.570312 0 "/></g></g></g><g fill="#e59e53" fill-opacity="0.4"><g transform="translate(814.653326, 439.676399)"><g><path d="M 8.210938 -14.324219 L 21.539062 0.550781 L 22.9375 0.550781 L 22.9375 -26.289062 L 17.636719 -26.289062 L 17.636719 -11.414062 L 4.34375 -26.878906 L 2.945312 -26.878906 L 2.945312 0 L 8.210938 0 Z M 8.210938 -14.324219 "/></g></g></g><g fill="#e59e53" fill-opacity="0.4"><g transform="translate(846.712747, 439.676399)"><g><path d="M 12.554688 0 L 12.554688 -21.0625 L 19.109375 -21.0625 L 19.109375 -26.289062 L 0.738281 -26.289062 L 0.738281 -21.0625 L 7.289062 -21.0625 L 7.289062 0 Z M 12.554688 0 "/></g></g></g><g fill="#e59e53" fill-opacity="0.4"><g transform="translate(872.993919, 439.676399)"><g><path d="M 15.613281 0.367188 C 33.726562 0.367188 33.726562 -26.769531 15.613281 -26.769531 C -2.503906 -26.769531 -2.503906 0.367188 15.613281 0.367188 Z M 15.613281 -5.082031 C 5.082031 -5.082031 5.082031 -21.355469 15.613281 -21.355469 C 26.144531 -21.355469 26.144531 -5.082031 15.613281 -5.082031 Z M 15.613281 -5.082031 "/></g></g></g><g fill="#e59e53" fill-opacity="0.4"><g transform="translate(910.316333, 439.676399)"><g><path d="M 16.054688 0 L 22.019531 0 L 15.90625 -10.863281 C 23.640625 -13.109375 22.71875 -26.328125 13.328125 -26.328125 L 2.945312 -26.328125 L 2.945312 0 L 8.210938 0 L 8.210938 -10.050781 L 10.75 -10.050781 Z M 8.210938 -15.171875 L 8.210938 -21.0625 L 12.851562 -21.0625 C 16.421875 -21.0625 16.421875 -15.171875 12.851562 -15.171875 Z M 8.210938 -15.171875 "/></g></g></g><g fill="#e59e53" fill-opacity="0.4"><g transform="translate(939.026566, 439.676399)"><g><path d="M 9.390625 0 L 14.617188 0 L 14.617188 -11.855469 L 23.824219 -26.328125 L 17.378906 -26.328125 L 12.003906 -17.269531 L 6.628906 -26.328125 L 0.222656 -26.328125 L 9.390625 -11.855469 Z M 9.390625 0 "/></g></g></g><g fill="#e59e53" fill-opacity="1"><g transform="translate(709.336747, 438.049079)"><g><path d="M 8.210938 0 L 8.210938 -26.328125 L 2.945312 -26.328125 L 2.945312 0 Z M 8.210938 0 "/></g></g></g><g fill="#e59e53" fill-opacity="1"><g transform="translate(726.674479, 438.049079)"><g><path d="M 8.210938 -14.324219 L 21.539062 0.550781 L 22.9375 0.550781 L 22.9375 -26.289062 L 17.636719 -26.289062 L 17.636719 -11.414062 L 4.34375 -26.878906 L 2.945312 -26.878906 L 2.945312 0 L 8.210938 0 Z M 8.210938 -14.324219 "/></g></g></g><g fill="#e59e53" fill-opacity="1"><g transform="translate(758.733895, 438.049079)"><g><path d="M 11.121094 0.550781 L 12.296875 0.550781 L 23.195312 -26.328125 L 17.121094 -26.328125 L 13.585938 -17.378906 L 11.707031 -12.113281 L 9.792969 -17.5625 L 6.296875 -26.328125 L 0.222656 -26.328125 Z M 11.121094 0.550781 "/></g></g></g><g fill="#e59e53" fill-opacity="1"><g transform="translate(788.327432, 438.049079)"><g><path d="M 16.570312 0 L 16.570312 -5.265625 L 8.210938 -5.265625 L 8.210938 -10.53125 L 15.132812 -10.53125 L 15.132812 -15.796875 L 8.210938 -15.796875 L 8.210938 -21.0625 L 16.128906 -21.0625 L 16.128906 -26.328125 L 2.945312 -26.328125 L 2.945312 0 Z M 16.570312 0 "/></g></g></g><g fill="#e59e53" fill-opacity="1"><g transform="translate(813.026006, 438.049079)"><g><path d="M 8.210938 -14.324219 L 21.539062 0.550781 L 22.9375 0.550781 L 22.9375 -26.289062 L 17.636719 -26.289062 L 17.636719 -11.414062 L 4.34375 -26.878906 L 2.945312 -26.878906 L 2.945312 0 L 8.210938 0 Z M 8.210938 -14.324219 "/></g></g></g><g fill="#e59e53" fill-opacity="1"><g transform="translate(845.085427, 438.049079)"><g><path d="M 12.554688 0 L 12.554688 -21.0625 L 19.109375 -21.0625 L 19.109375 -26.289062 L 0.738281 -26.289062 L 0.738281 -21.0625 L 7.289062 -21.0625 L 7.289062 0 Z M 12.554688 0 "/></g></g></g><g fill="#e59e53" fill-opacity="1"><g transform="translate(871.3666, 438.049079)"><g><path d="M 15.613281 0.367188 C 33.726562 0.367188 33.726562 -26.769531 15.613281 -26.769531 C -2.503906 -26.769531 -2.503906 0.367188 15.613281 0.367188 Z M 15.613281 -5.082031 C 5.082031 -5.082031 5.082031 -21.355469 15.613281 -21.355469 C 26.144531 -21.355469 26.144531 -5.082031 15.613281 -5.082031 Z M 15.613281 -5.082031 "/></g></g></g><g fill="#e59e53" fill-opacity="1"><g transform="translate(908.689013, 438.049079)"><g><path d="M 16.054688 0 L 22.019531 0 L 15.90625 -10.863281 C 23.640625 -13.109375 22.71875 -26.328125 13.328125 -26.328125 L 2.945312 -26.328125 L 2.945312 0 L 8.210938 0 L 8.210938 -10.050781 L 10.75 -10.050781 Z M 8.210938 -15.171875 L 8.210938 -21.0625 L 12.851562 -21.0625 C 16.421875 -21.0625 16.421875 -15.171875 12.851562 -15.171875 Z M 8.210938 -15.171875 "/></g></g></g><g fill="#e59e53" fill-opacity="1"><g transform="translate(937.399246, 438.049079)"><g><path d="M 9.390625 0 L 14.617188 0 L 14.617188 -11.855469 L 23.824219 -26.328125 L 17.378906 -26.328125 L 12.003906 -17.269531 L 6.628906 -26.328125 L 0.222656 -26.328125 L 9.390625 -11.855469 Z M 9.390625 0 "/></g></g></g></svg>