<svg width="1920" height="1080" viewBox="0 0 1920 1080" fill="none" xmlns="http://www.w3.org/2000/svg">
<mask id="mask0_1_2" style="mask-type:luminance" maskUnits="userSpaceOnUse" x="625" y="393" width="279" height="290">
<path d="M625.911 393.974H903.911V682.667H625.911V393.974Z" fill="white"/>
</mask>
<g mask="url(#mask0_1_2)">
<path d="M901.656 455.026L767.052 394.687C765.786 394.12 764.521 394.12 763.26 394.687L628.656 455.026C627.823 455.401 627.156 455.969 626.661 456.74C626.161 457.505 625.911 458.344 625.911 459.26V617.068C625.911 617.984 626.161 618.823 626.661 619.594C627.156 620.359 627.823 620.927 628.656 621.302L763.26 681.641C764.521 682.208 765.786 682.208 767.052 681.641L901.656 621.302C902.49 620.927 903.156 620.359 903.651 619.594C904.151 618.823 904.396 617.984 904.396 617.068V459.26C904.396 458.344 904.151 457.505 903.651 456.74C903.156 455.969 902.49 455.401 901.656 455.026ZM760.516 670.24L635.198 614.063V466.745L760.516 522.922V670.24ZM765.156 514.828L641.542 459.417L765.156 404.01L888.766 459.417L765.156 514.828ZM895.115 614.063L769.797 670.24V522.922L895.115 466.745V614.063Z" fill="#E59E53"/>
</g>
<mask id="mask1_1_2" style="mask-type:luminance" maskUnits="userSpaceOnUse" x="637" y="513" width="119" height="115">
<path d="M637.333 513.333H756V628H637.333V513.333Z" fill="white"/>
</mask>
<g mask="url(#mask1_1_2)">
<mask id="mask2_1_2" style="mask-type:luminance" maskUnits="userSpaceOnUse" x="632" y="504" width="131" height="128">
<path d="M663.349 504L762.37 535.792L731.495 631.958L632.474 600.167L663.349 504Z" fill="white"/>
</mask>
<g mask="url(#mask2_1_2)">
<mask id="mask3_1_2" style="mask-type:luminance" maskUnits="userSpaceOnUse" x="632" y="504" width="131" height="128">
<path d="M663.349 504L762.37 535.792L731.495 631.958L632.474 600.167L663.349 504Z" fill="white"/>
</mask>
<g mask="url(#mask3_1_2)">
<path d="M669.104 518.599C670.661 517.802 671.88 520.167 670.323 520.969C667.901 522.214 668.812 526.333 666.521 525.781C663.995 525.172 666.917 519.724 669.104 518.599ZM649.167 591.302C652.052 592.229 650.646 596.615 647.76 595.688C644.875 594.766 646.281 590.38 649.167 591.302ZM720.406 614.177C717.521 613.25 716.109 617.635 719 618.563C721.885 619.49 723.292 615.104 720.406 614.177ZM688.271 569.51L642.177 590.708C641.354 591.104 641.151 591.911 641.62 592.797L645.214 599.807C645.578 600.469 646.401 600.698 647.12 600.323L690.943 575.318L688.271 569.51ZM692.385 578.464L648.339 603.563C645.958 604.594 643.25 603.589 642.052 601.198L638.359 594C637.24 591.818 638.203 588.74 640.74 587.578L686.833 566.38L682.156 556.219C670.151 555.609 659.286 539.458 660.594 525.979C662.437 506.969 682.536 511.344 691 527.807C694.672 534.948 696.25 544.646 692.094 551.109L697.896 561.297L711.078 555.229L714.474 544.979C715.141 542.958 716.505 541.453 718.443 540.594L741.406 530.411C743.177 529.625 744.667 530.505 745.583 532.203C746.49 533.844 747.557 535.776 744.99 537.323L732.052 545.12L745.828 539.016C747.302 538.359 749.062 538.979 749.797 540.417H749.792C750.833 542.323 752.307 544.474 749.484 546.141L736.505 553.781L750.375 547.802C752.156 547.036 753.615 547.922 754.521 549.594C755.432 551.245 756.51 553.203 753.906 554.74L732.26 567.484C730.437 568.557 728.417 568.792 726.385 568.161L716.073 564.948L703.932 571.88L729.323 616.422C730.359 618.818 729.328 621.552 726.943 622.719L719.755 626.411C717.328 627.526 714.458 626.453 713.344 624.031L692.385 578.464ZM702.224 568.885L715.016 561.583C715.448 561.339 715.943 561.297 716.385 561.438L727.411 564.865C728.495 565.203 729.521 565.083 730.505 564.505L751.917 551.896C752.703 551.432 752.078 550.776 751.411 551.115L732.708 559.177C730.286 560.224 729.766 558.349 728.984 556.828C728.406 555.703 728.812 554.302 729.901 553.661L747.359 543.375C748.156 542.906 747.495 542.057 746.667 542.427L728.307 550.563C725.875 551.635 725.344 549.74 724.557 548.214C723.984 547.099 724.38 545.719 725.458 545.068L742.937 534.531C743.797 534.01 743.151 533.375 742.479 533.724L719.844 543.76C718.802 544.219 718.104 544.984 717.75 546.057L714.12 557.026C713.958 557.521 713.594 557.891 713.146 558.073L699.609 564.297L702.224 568.885ZM691.25 524.839C689 525.182 688.479 521.76 690.729 521.417C704.453 519.318 718.479 523.396 728.948 532.521C730.661 534.01 728.385 536.62 726.677 535.13C716.979 526.672 703.969 522.88 691.25 524.839ZM741.505 563.964C741.286 561.708 744.729 561.38 744.948 563.641C746.521 579.995 739.49 596 726.37 605.906C724.557 607.271 722.479 604.516 724.281 603.146C736.432 593.979 742.969 579.115 741.505 563.964ZM705.37 611.365C707.604 610.979 708.193 614.38 705.953 614.766C689.531 617.615 672.797 611.615 661.969 598.948C660.495 597.224 663.115 594.984 664.589 596.708C674.594 608.411 690.198 614.016 705.37 611.365ZM655.292 578.604C655.833 580.807 652.484 581.635 651.943 579.432C648.609 565.922 651.437 551.656 659.604 540.37C660.943 538.521 663.74 540.552 662.406 542.391C654.839 552.849 652.208 566.078 655.292 578.604ZM684.859 553.849L716.469 622.583C716.917 623.458 717.734 623.599 718.557 623.141L725.641 619.505C726.297 619.115 726.443 618.307 726.021 617.542L688.557 551.865C687.297 549.661 691.318 549.396 691.099 541.078C690.583 521.318 665.969 506.406 664.036 526.318C662.839 538.682 673.464 553.224 683.182 552.776C683.932 552.74 684.594 553.188 684.859 553.849ZM696.891 546.208C694.615 546.313 694.464 542.854 696.74 542.75C702.042 542.516 707.318 543.969 711.781 546.875C713.687 548.115 711.802 551.005 709.901 549.766C706.042 547.255 701.5 546.005 696.891 546.208ZM719.839 569.089C719.943 566.823 723.385 566.974 723.281 569.245C722.995 575.797 720.229 581.953 715.526 586.49C713.885 588.068 711.49 585.578 713.125 584C717.182 580.094 719.599 574.724 719.839 569.089ZM696.031 590.083C698.297 590.276 698 593.719 695.734 593.526C690.656 593.089 685.823 591.151 681.865 587.948C680.099 586.521 682.271 583.839 684.036 585.266C687.437 588.016 691.656 589.714 696.031 590.083ZM675.917 569.453C676.047 571.724 672.604 571.922 672.469 569.656C672.208 565.167 673.141 560.729 675.167 556.698C676.187 554.667 679.266 556.214 678.25 558.24C676.505 561.708 675.693 565.589 675.917 569.453ZM665.099 529.354C665.021 527.609 667.667 527.484 667.75 529.229C668.052 535.708 671.786 542.75 676.953 546.609C678.359 547.656 676.766 549.786 675.365 548.74C669.557 544.411 665.453 536.641 665.099 529.354Z" fill="#E59E53"/>
</g>
</g>
</g>
<path d="M688.766 433.255L822.583 493.63" stroke="#E59E53" stroke-width="8"/>
<path d="M720.38 418.729L854.198 479.099" stroke="#E59E53" stroke-width="8"/>
<path d="M821.469 500.276L821.333 519.422" stroke="#E59E53" stroke-width="8" stroke-linecap="round"/>
<path d="M853.005 482.661L852.521 504.604" stroke="#E59E53" stroke-width="8" stroke-linecap="round"/>
<path d="M824.078 518.135L850.078 505.932" stroke="#E59E53" stroke-width="8" stroke-linecap="round"/>
<path d="M782.01 647.62L800.635 638.359" stroke="#E59E53" stroke-width="8" stroke-linecap="round"/>
<path d="M999.792 519.274V503.3H992.417V514.237C991.756 514.341 991.042 514.44 990.381 514.44C976.339 514.44 975.678 492.716 990.381 492.206C994.251 492.102 996.589 492.92 998.016 493.529L998.881 486.149C998.22 485.946 994.709 484.675 990.381 484.826C965.147 485.742 966.365 521.716 990.381 521.716C993.839 521.716 996.996 520.852 999.792 519.274Z" fill="#37455D"/>
<path d="M1033.78 522.024C1058.81 522.024 1058.81 484.524 1033.78 484.524C1008.75 484.524 1008.75 522.024 1033.78 522.024ZM1033.78 514.493C1019.22 514.493 1019.22 492.003 1033.78 492.003C1048.33 492.003 1048.33 514.493 1033.78 514.493Z" fill="#37455D"/>
<path d="M1093.96 508.841V485.133H1086.74V508.795C1086.74 516.425 1074.93 516.425 1074.93 508.795V485.133H1067.65V508.841C1067.65 526.144 1093.96 526.144 1093.96 508.841Z" fill="#37455D"/>
<path d="M1128.6 521.513H1136.85L1128.4 506.503C1139.09 503.399 1137.82 485.133 1124.84 485.133H1110.49V521.513H1117.77V507.623H1121.28L1128.6 521.513ZM1117.77 500.55V492.409H1124.18C1129.11 492.409 1129.11 500.55 1124.18 500.55H1117.77Z" fill="#37455D"/>
<path d="M1166.86 500.55L1152.52 484.576H1150.18V521.513H1157.55V501.211L1166.86 510.982L1176.18 501.211L1176.12 521.513H1183.5V484.576H1181.21L1166.86 500.55Z" fill="#37455D"/>
<path d="M1219.01 521.513V514.237H1207.46V506.961H1217.02V499.685H1207.46V492.409H1218.4V485.133H1200.19V521.513H1219.01Z" fill="#37455D"/>
<path d="M1247.6 521.513V492.409H1256.66V485.185H1231.27V492.409H1240.32V521.513H1247.6Z" fill="#37455D"/>
<path d="M958.9 586.235V551.131H951.879V586.235H958.9Z" fill="#E59E53" fill-opacity="0.4"/>
<path d="M982.017 567.136L999.788 586.97H1001.65V551.183H994.585V571.016L976.861 550.397H974.996V586.235H982.017V567.136Z" fill="#E59E53" fill-opacity="0.4"/>
<path d="M1028.64 586.97H1030.21L1044.74 551.131H1036.64L1031.93 563.063L1029.42 570.084L1026.87 562.819L1022.21 551.131H1014.11L1028.64 586.97Z" fill="#E59E53" fill-opacity="0.4"/>
<path d="M1075.37 586.235V579.214H1064.22V572.194H1073.45V565.173H1064.22V558.152H1074.78V551.131H1057.2V586.235H1075.37Z" fill="#E59E53" fill-opacity="0.4"/>
<path d="M1097.15 567.136L1114.92 586.97H1116.79V551.183H1109.72V571.016L1092 550.397H1090.13V586.235H1097.15V567.136Z" fill="#E59E53" fill-opacity="0.4"/>
<path d="M1145.69 586.235V558.152H1154.43V551.183H1129.93V558.152H1138.67V586.235H1145.69Z" fill="#E59E53" fill-opacity="0.4"/>
<path d="M1184.81 586.725C1208.96 586.725 1208.96 550.542 1184.81 550.542C1160.65 550.542 1160.65 586.725 1184.81 586.725ZM1184.81 579.459C1170.77 579.459 1170.77 557.761 1184.81 557.761C1198.85 557.761 1198.85 579.459 1184.81 579.459Z" fill="#E59E53" fill-opacity="0.4"/>
<path d="M1235.16 586.235H1243.11L1234.96 571.751C1245.28 568.756 1244.05 551.131 1231.53 551.131H1217.68V586.235H1224.7V572.834H1228.09L1235.16 586.235ZM1224.7 566.006V558.152H1230.89C1235.65 558.152 1235.65 566.006 1230.89 566.006H1224.7Z" fill="#E59E53" fill-opacity="0.4"/>
<path d="M1264.56 586.235H1271.52V570.428L1283.8 551.131H1275.21L1268.04 563.209L1260.87 551.131H1252.33L1264.56 570.428V586.235Z" fill="#E59E53" fill-opacity="0.4"/>
<path d="M956.73 584.065V548.961H949.709V584.065H956.73Z" fill="#E59E53"/>
<path d="M979.847 564.966L997.618 584.8H999.483V549.013H992.415V568.847L974.691 548.227H972.826V584.065H979.847V564.966Z" fill="#E59E53"/>
<path d="M1026.47 584.8H1028.04L1042.57 548.961H1034.47L1029.76 560.894L1027.25 567.914L1024.7 560.649L1020.04 548.961H1011.94L1026.47 584.8Z" fill="#E59E53"/>
<path d="M1073.2 584.065V577.045H1062.05V570.024H1071.28V563.003H1062.05V555.982H1072.61V548.961H1055.03V584.065H1073.2Z" fill="#E59E53"/>
<path d="M1094.98 564.966L1112.75 584.8H1114.62V549.013H1107.55V568.847L1089.83 548.227H1087.96V584.065H1094.98V564.966Z" fill="#E59E53"/>
<path d="M1143.52 584.065V555.982H1152.26V549.013H1127.77V555.982H1136.5V584.065H1143.52Z" fill="#E59E53"/>
<path d="M1182.64 584.555C1206.79 584.555 1206.79 548.373 1182.64 548.373C1158.48 548.373 1158.48 584.555 1182.64 584.555ZM1182.64 577.289C1168.6 577.289 1168.6 555.591 1182.64 555.591C1196.68 555.591 1196.68 577.289 1182.64 577.289Z" fill="#E59E53"/>
<path d="M1232.99 584.065H1240.94L1232.79 569.581C1243.11 566.586 1241.88 548.961 1229.36 548.961H1215.51V584.065H1222.53V570.664H1225.92L1232.99 584.065ZM1222.53 563.836V555.982H1228.72C1233.48 555.982 1233.48 563.836 1228.72 563.836H1222.53Z" fill="#E59E53"/>
<path d="M1262.39 584.065H1269.36V568.258L1281.63 548.961H1273.04L1265.87 561.039L1258.7 548.961H1250.16L1262.39 568.258V584.065Z" fill="#E59E53"/>
</svg>
