<svg width="381" height="361" viewBox="0 0 381 361" fill="none" xmlns="http://www.w3.org/2000/svg">
<path d="M211.818 78.3867C161.09 79.0996 119.861 120.632 119.493 171.281C119.384 185.36 122.468 199.281 128.512 212.001C134.556 224.721 143.404 235.911 154.393 244.733C158.228 247.87 161.069 252.05 162.572 256.766L166.9 270.128H259.377L263.801 256.496C265.276 251.918 268.049 247.865 271.785 244.83C286.995 232.635 298.011 216.002 303.296 197.254C308.581 178.506 307.871 158.578 301.265 140.252C294.659 121.926 282.486 106.117 266.447 95.0322C250.407 83.9471 231.302 78.1392 211.797 78.4191L211.818 78.3867Z" fill="white"/>
<mask id="mask0_576_349" style="mask-type:luminance" maskUnits="userSpaceOnUse" x="119" y="80" width="188" height="193">
<path d="M211.818 80.5364C161.09 81.2493 119.861 122.782 119.493 173.431C119.384 187.51 122.468 201.43 128.512 214.151C134.556 226.871 143.404 238.061 154.394 246.883C158.228 250.02 161.069 254.199 162.572 258.916L166.9 272.278H259.377L263.801 258.646C265.276 254.068 268.049 250.015 271.786 246.98C286.995 234.785 298.011 218.152 303.296 199.404C308.581 180.655 307.871 160.727 301.265 142.402C294.659 124.076 282.486 108.267 266.447 97.1819C250.407 86.0968 231.302 80.2888 211.797 80.5688L211.818 80.5364Z" fill="white"/>
</mask>
<g mask="url(#mask0_576_349)">
<path d="M190.365 264.544C190.419 266.888 190.365 268.216 190.365 268.216" stroke="#263238" stroke-linecap="round" stroke-linejoin="round"/>
<path d="M188.093 235.93C189.251 244.42 189.835 252.186 190.127 257.976" stroke="#263238" stroke-linecap="round" stroke-linejoin="round"/>
<path d="M179.752 188.457H173.174C179.979 198.751 184.09 212.933 186.579 226.5" stroke="#263238" stroke-linecap="round" stroke-linejoin="round"/>
<path d="M192.843 185.767L192.075 188.456H181.97" stroke="#263238" stroke-linecap="round" stroke-linejoin="round"/>
<path d="M200.069 193.403L199.193 196.363L194.141 181.208L193.34 184.006" stroke="#263238" stroke-linecap="round" stroke-linejoin="round"/>
<path d="M210.509 189.828L208.508 196.363L203.651 181.208L201.043 190.087" stroke="#263238" stroke-linecap="round" stroke-linejoin="round"/>
<path d="M224.693 188.111L222.669 181.208L217.812 196.363L213.16 181.208L211.797 185.648" stroke="#263238" stroke-linecap="round" stroke-linejoin="round"/>
<path d="M237.231 188.456H234.234L232.179 181.208L227.116 196.363L225.525 190.93" stroke="#263238" stroke-linecap="round" stroke-linejoin="round"/>
<path d="M241.158 219.501C243.711 208.191 247.498 196.979 253.134 188.457H240.368" stroke="#263238" stroke-linecap="round" stroke-linejoin="round"/>
<path d="M238.4 234.526C238.919 230.885 239.557 227.116 240.314 223.335" stroke="#263238" stroke-linecap="round" stroke-linejoin="round"/>
<path d="M236.528 252.349C236.798 248.547 237.188 244.258 237.74 239.678" stroke="#263238" stroke-linecap="round" stroke-linejoin="round"/>
<path d="M236.073 260.504C236.073 259.51 236.171 258.43 236.225 257.263" stroke="#263238" stroke-linecap="round" stroke-linejoin="round"/>
<path d="M235.911 268.216C235.911 268.216 235.911 266.445 235.976 263.388" stroke="#263238" stroke-linecap="round" stroke-linejoin="round"/>
<path opacity="0.2" d="M211.818 80.5364C161.09 81.2493 119.861 122.782 119.493 173.431C119.384 187.51 122.468 201.43 128.512 214.151C134.556 226.871 143.404 238.061 154.394 246.883C158.228 250.02 161.069 254.199 162.572 258.916L166.9 272.278H259.377L263.801 258.646C265.276 254.068 268.049 250.015 271.786 246.98C286.995 234.785 298.011 218.152 303.296 199.404C308.581 180.655 307.871 160.727 301.265 142.402C294.659 124.076 282.486 108.267 266.447 97.1819C250.407 86.0968 231.302 80.2888 211.797 80.5688L211.818 80.5364ZM213.16 233.597C198.977 233.599 185.111 229.401 173.317 221.535C161.524 213.668 152.331 202.486 146.903 189.403C141.475 176.32 140.054 161.923 142.822 148.034C145.589 134.145 152.42 121.387 162.45 111.375C172.479 101.362 185.258 94.5438 199.169 91.783C213.081 89.0221 227.499 90.4423 240.602 95.8641C253.705 101.286 264.903 110.466 272.78 122.242C280.657 134.019 284.859 147.863 284.854 162.024C284.851 181.008 277.297 199.212 263.852 212.634C250.407 226.056 232.173 233.597 213.16 233.597Z" fill="#E6C451"/>
</g>
<path d="M211.818 78.3867C161.09 79.0996 119.861 120.632 119.493 171.281C119.384 185.36 122.468 199.281 128.512 212.001C134.556 224.721 143.404 235.911 154.393 244.733C158.228 247.87 161.069 252.05 162.572 256.766L166.9 270.128H259.377L263.801 256.496C265.276 251.918 268.049 247.865 271.785 244.83C286.995 232.635 298.011 216.002 303.296 197.254C308.581 178.506 307.871 158.578 301.265 140.252C294.659 121.926 282.486 106.117 266.447 95.0322C250.407 83.9471 231.302 78.1392 211.797 78.4191L211.818 78.3867Z" stroke="#263238" stroke-linecap="round" stroke-linejoin="round"/>
<path d="M223.989 359.998H202.352C201.815 359.999 201.288 359.857 200.824 359.587C200.36 359.318 199.977 358.93 199.712 358.464L196.467 352.761L183.949 345.513H242.51L230.004 352.761L226.758 358.464C226.481 358.948 226.076 359.346 225.588 359.616C225.1 359.887 224.547 360.019 223.989 359.998Z" fill="#263238" stroke="#263238" stroke-linecap="round" stroke-linejoin="round"/>
<path d="M248.201 341.214H178.119C179.36 343.799 181.307 345.982 183.735 347.51C186.164 349.039 188.976 349.852 191.847 349.855H234.462C237.334 349.851 240.147 349.039 242.578 347.51C245.008 345.981 246.957 343.799 248.201 341.214Z" fill="#757575" stroke="#263238" stroke-linecap="round" stroke-linejoin="round"/>
<path d="M248.201 341.214H178.118L169.777 281.913H256.542L248.201 341.214Z" fill="#999999"/>
<mask id="mask1_576_349" style="mask-type:luminance" maskUnits="userSpaceOnUse" x="169" y="281" width="88" height="61">
<path d="M248.201 341.214H178.118L169.777 281.913H256.542L248.201 341.214Z" fill="white"/>
</mask>
<g mask="url(#mask1_576_349)">
<path opacity="0.4" d="M181.71 321.706L182.478 328.5L244.371 323.715L245.161 316.672L181.71 321.706Z" fill="white"/>
<path opacity="0.4" d="M205.024 339.183H237.317C238.358 339.181 239.38 338.905 240.28 338.384C241.18 337.862 241.927 337.113 242.445 336.213L205.024 339.183Z" fill="white"/>
<path opacity="0.4" d="M182.803 331.384L183.084 333.923C183.265 335.459 184.042 336.862 185.248 337.833L243.311 333.339L244.079 326.524L182.803 331.384Z" fill="white"/>
<path opacity="0.4" d="M246.567 304.218L246.805 302.079H212.608H211.201H179.514L180.325 309.349L246.567 304.218Z" fill="white"/>
<path opacity="0.4" d="M180.65 312.233L181.396 318.811L245.485 313.853L246.243 307.037L180.65 312.233Z" fill="white"/>
</g>
<path d="M248.201 341.214H178.118L169.777 281.913H256.542L248.201 341.214Z" stroke="#263238" stroke-linecap="round" stroke-linejoin="round"/>
<path d="M173.142 311.325C172.479 311.35 171.834 311.11 171.348 310.66C170.862 310.209 170.575 309.584 170.551 308.922C170.527 308.26 170.767 307.616 171.218 307.131C171.669 306.646 172.295 306.359 172.958 306.335L253.015 300.427C253.677 300.378 254.33 300.593 254.833 301.026C255.335 301.458 255.644 302.072 255.693 302.733C255.742 303.393 255.526 304.046 255.093 304.547C254.659 305.048 254.045 305.357 253.383 305.406L173.326 311.315L173.142 311.325Z" fill="#BFBFBF"/>
<mask id="mask2_576_349" style="mask-type:luminance" maskUnits="userSpaceOnUse" x="170" y="300" width="86" height="12">
<path d="M173.142 311.325C172.479 311.35 171.834 311.11 171.348 310.66C170.862 310.209 170.575 309.584 170.551 308.922C170.527 308.26 170.767 307.616 171.218 307.131C171.669 306.646 172.295 306.359 172.958 306.335L253.015 300.427C253.677 300.378 254.33 300.593 254.833 301.026C255.335 301.458 255.644 302.072 255.693 302.733C255.742 303.393 255.526 304.046 255.093 304.547C254.659 305.048 254.045 305.357 253.383 305.406L173.326 311.315L173.142 311.325Z" fill="white"/>
</mask>
<g mask="url(#mask2_576_349)">
<g opacity="0.4">
<path d="M255.374 301.766C255.18 302.143 254.892 302.464 254.537 302.697C254.183 302.93 253.774 303.067 253.351 303.095L173.293 309.003H173.109C172.89 309.128 172.642 309.195 172.389 309.199C172.137 309.202 171.887 309.141 171.665 309.022C171.442 308.903 171.253 308.729 171.116 308.517C170.979 308.305 170.898 308.062 170.881 307.81C170.863 307.558 170.91 307.306 171.017 307.078C171.124 306.849 171.287 306.651 171.492 306.503C171.696 306.354 171.935 306.26 172.186 306.229C172.436 306.198 172.691 306.231 172.925 306.324L252.983 300.416C253.47 300.382 253.956 300.492 254.382 300.732C254.807 300.972 255.152 301.332 255.374 301.766Z" fill="white"/>
</g>
</g>
<path d="M173.142 311.325C172.479 311.35 171.834 311.11 171.348 310.66C170.862 310.209 170.575 309.584 170.551 308.922C170.527 308.26 170.767 307.616 171.218 307.131C171.669 306.646 172.295 306.359 172.958 306.335L253.015 300.427C253.677 300.378 254.33 300.593 254.833 301.026C255.335 301.458 255.644 302.072 255.693 302.733C255.742 303.393 255.526 304.046 255.093 304.547C254.659 305.048 254.045 305.357 253.383 305.406L173.326 311.315L173.142 311.325Z" stroke="#263238" stroke-linecap="round" stroke-linejoin="round"/>
<path d="M174.57 320.961C173.907 320.985 173.262 320.746 172.776 320.295C172.29 319.844 172.003 319.219 171.979 318.557C171.955 317.896 172.195 317.251 172.646 316.766C173.097 316.281 173.723 315.995 174.386 315.97L251.674 310.256C252.335 310.208 252.989 310.423 253.491 310.856C253.993 311.288 254.303 311.902 254.351 312.562C254.4 313.223 254.184 313.875 253.751 314.377C253.318 314.878 252.703 315.187 252.042 315.236L174.754 320.95L174.57 320.961Z" fill="#BFBFBF"/>
<mask id="mask3_576_349" style="mask-type:luminance" maskUnits="userSpaceOnUse" x="171" y="310" width="84" height="11">
<path d="M174.57 320.961C173.907 320.985 173.262 320.746 172.776 320.295C172.29 319.844 172.003 319.219 171.979 318.557C171.955 317.896 172.195 317.251 172.646 316.766C173.097 316.281 173.723 315.995 174.386 315.97L251.674 310.256C252.335 310.208 252.989 310.423 253.491 310.856C253.993 311.288 254.303 311.902 254.351 312.562C254.4 313.223 254.184 313.875 253.751 314.377C253.318 314.878 252.703 315.187 252.042 315.236L174.754 320.95L174.57 320.961Z" fill="white"/>
</mask>
<g mask="url(#mask3_576_349)">
<g opacity="0.4">
<path d="M254.011 311.596C253.817 311.973 253.529 312.293 253.175 312.526C252.82 312.759 252.411 312.896 251.988 312.924L174.7 318.66H174.57C174.351 318.785 174.103 318.852 173.85 318.855C173.598 318.859 173.348 318.798 173.126 318.679C172.903 318.559 172.714 318.386 172.577 318.174C172.44 317.962 172.359 317.719 172.342 317.467C172.324 317.215 172.371 316.963 172.478 316.734C172.585 316.506 172.748 316.308 172.953 316.16C173.157 316.011 173.396 315.917 173.647 315.886C173.897 315.854 174.152 315.887 174.386 315.981L251.674 310.267C252.149 310.246 252.621 310.359 253.035 310.594C253.448 310.829 253.787 311.177 254.011 311.596Z" fill="white"/>
</g>
</g>
<path d="M174.57 320.961C173.907 320.985 173.262 320.746 172.776 320.295C172.29 319.844 172.003 319.219 171.979 318.557C171.955 317.896 172.195 317.251 172.646 316.766C173.097 316.281 173.723 315.995 174.386 315.97L251.674 310.256C252.335 310.208 252.989 310.423 253.491 310.856C253.993 311.288 254.303 311.902 254.351 312.562C254.4 313.223 254.184 313.875 253.751 314.377C253.318 314.878 252.703 315.187 252.042 315.236L174.754 320.95L174.57 320.961Z" stroke="#263238" stroke-linecap="round" stroke-linejoin="round"/>
<path d="M175.879 330.596C175.216 330.619 174.572 330.378 174.087 329.926C173.602 329.474 173.316 328.849 173.293 328.187C173.271 327.525 173.512 326.882 173.964 326.397C174.417 325.913 175.043 325.628 175.706 325.606L250.246 320.107C250.573 320.083 250.902 320.124 251.214 320.227C251.526 320.33 251.814 320.493 252.063 320.707C252.312 320.921 252.516 321.182 252.663 321.475C252.811 321.768 252.899 322.087 252.923 322.414C252.948 322.741 252.907 323.069 252.804 323.38C252.701 323.692 252.538 323.98 252.323 324.228C252.109 324.476 251.847 324.68 251.554 324.827C251.261 324.975 250.941 325.063 250.614 325.087L176.074 330.596H175.879Z" fill="#BFBFBF"/>
<mask id="mask4_576_349" style="mask-type:luminance" maskUnits="userSpaceOnUse" x="173" y="320" width="80" height="11">
<path d="M175.879 330.596C175.216 330.619 174.572 330.378 174.087 329.926C173.602 329.474 173.316 328.849 173.293 328.187C173.271 327.525 173.512 326.882 173.964 326.397C174.417 325.913 175.043 325.628 175.706 325.606L250.246 320.107C250.573 320.083 250.902 320.124 251.214 320.227C251.526 320.33 251.814 320.493 252.063 320.707C252.312 320.921 252.516 321.182 252.663 321.475C252.811 321.768 252.899 322.087 252.923 322.414C252.948 322.741 252.907 323.069 252.804 323.38C252.701 323.692 252.538 323.98 252.323 324.228C252.109 324.476 251.847 324.68 251.554 324.827C251.261 324.975 250.941 325.063 250.614 325.087L176.074 330.596H175.879Z" fill="white"/>
</mask>
<g mask="url(#mask4_576_349)">
<g opacity="0.4">
<path d="M252.636 321.447C252.446 321.826 252.158 322.148 251.803 322.381C251.448 322.615 251.038 322.751 250.613 322.775L176.074 328.284H175.879C175.659 328.407 175.412 328.472 175.16 328.473C174.909 328.475 174.661 328.413 174.44 328.293C174.218 328.174 174.031 328 173.895 327.789C173.759 327.577 173.679 327.335 173.662 327.084C173.644 326.834 173.691 326.583 173.797 326.355C173.903 326.127 174.065 325.93 174.268 325.781C174.471 325.632 174.708 325.537 174.957 325.505C175.207 325.472 175.461 325.503 175.695 325.595L250.235 320.097C250.724 320.062 251.212 320.171 251.639 320.411C252.066 320.651 252.413 321.011 252.636 321.447Z" fill="white"/>
</g>
</g>
<path d="M175.879 330.596C175.216 330.619 174.572 330.378 174.087 329.926C173.602 329.474 173.316 328.849 173.293 328.187C173.271 327.525 173.512 326.882 173.964 326.397C174.417 325.913 175.043 325.628 175.706 325.606L250.246 320.107C250.573 320.083 250.902 320.124 251.214 320.227C251.526 320.33 251.814 320.493 252.063 320.707C252.312 320.921 252.516 321.182 252.663 321.475C252.811 321.768 252.899 322.087 252.923 322.414C252.948 322.741 252.907 323.069 252.804 323.38C252.701 323.692 252.538 323.98 252.323 324.228C252.109 324.476 251.847 324.68 251.554 324.827C251.261 324.975 250.941 325.063 250.614 325.087L176.074 330.596H175.879Z" stroke="#263238" stroke-linecap="round" stroke-linejoin="round"/>
<path d="M177.253 340.263C176.59 340.288 175.945 340.048 175.459 339.598C174.973 339.147 174.686 338.522 174.662 337.86C174.637 337.198 174.877 336.554 175.329 336.069C175.78 335.584 176.406 335.297 177.069 335.273L248.872 329.969C249.533 329.921 250.187 330.136 250.689 330.569C251.191 331.001 251.5 331.615 251.549 332.276C251.598 332.936 251.382 333.589 250.949 334.09C250.516 334.591 249.901 334.9 249.239 334.949L177.437 340.263H177.253Z" fill="#BFBFBF"/>
<mask id="mask5_576_349" style="mask-type:luminance" maskUnits="userSpaceOnUse" x="174" y="329" width="78" height="12">
<path d="M177.253 340.263C176.59 340.288 175.945 340.048 175.459 339.598C174.973 339.147 174.686 338.522 174.662 337.86C174.637 337.198 174.877 336.554 175.329 336.069C175.78 335.584 176.406 335.297 177.069 335.273L248.872 329.969C249.533 329.921 250.187 330.136 250.689 330.569C251.191 331.001 251.5 331.615 251.549 332.276C251.598 332.936 251.382 333.589 250.949 334.09C250.516 334.591 249.901 334.9 249.239 334.949L177.437 340.263H177.253Z" fill="white"/>
</mask>
<g mask="url(#mask5_576_349)">
<g opacity="0.4">
<path d="M251.273 331.277C251.079 331.654 250.792 331.976 250.437 332.211C250.083 332.445 249.674 332.585 249.25 332.616L177.437 337.92H177.253C177.033 338.045 176.785 338.112 176.533 338.115C176.28 338.118 176.031 338.057 175.808 337.938C175.585 337.819 175.397 337.645 175.26 337.433C175.122 337.221 175.041 336.978 175.024 336.726C175.007 336.475 175.054 336.223 175.161 335.994C175.268 335.765 175.431 335.568 175.635 335.419C175.839 335.271 176.078 335.177 176.329 335.145C176.58 335.114 176.834 335.147 177.069 335.241L248.872 329.937C249.359 329.903 249.846 330.011 250.273 330.249C250.699 330.487 251.047 330.844 251.273 331.277Z" fill="white"/>
</g>
</g>
<path d="M177.253 340.263C176.59 340.288 175.945 340.048 175.459 339.598C174.973 339.147 174.686 338.522 174.662 337.86C174.637 337.198 174.877 336.554 175.329 336.069C175.78 335.584 176.406 335.297 177.069 335.273L248.872 329.969C249.533 329.921 250.187 330.136 250.689 330.569C251.191 331.001 251.5 331.615 251.549 332.276C251.598 332.936 251.382 333.589 250.949 334.09C250.516 334.591 249.901 334.9 249.239 334.949L177.437 340.263H177.253Z" stroke="#263238" stroke-linecap="round" stroke-linejoin="round"/>
<path d="M266.214 263.204L263.466 293.816L257.04 298.655H169.28L162.843 293.816L160.106 263.204L162.01 258.354H264.299L266.214 263.204Z" fill="#E59E53"/>
<path d="M266.214 263.204L263.466 293.816L257.04 298.655H169.28L162.843 293.816L160.106 263.204L162.01 258.354H264.299L266.214 263.204Z" stroke="#263238" stroke-linecap="round" stroke-linejoin="round"/>
<path d="M160.106 263.204H199.399" stroke="#263238" stroke-linecap="round" stroke-linejoin="round"/>
<path d="M205.565 263.204H215.453" stroke="#263238" stroke-linecap="round" stroke-linejoin="round"/>
<path d="M222.496 263.204H224.692" stroke="#263238" stroke-linecap="round" stroke-linejoin="round"/>
<path d="M266.214 263.204H256.542" stroke="#263238" stroke-linecap="round" stroke-linejoin="round"/>
<path d="M263.466 293.816H224.692" stroke="#263238" stroke-linecap="round" stroke-linejoin="round"/>
<path d="M218.32 293.816H205.565" stroke="#263238" stroke-linecap="round" stroke-linejoin="round"/>
<path d="M195.666 293.816H193.026" stroke="#263238" stroke-linecap="round" stroke-linejoin="round"/>
<path d="M162.843 293.816H173.38" stroke="#263238" stroke-linecap="round" stroke-linejoin="round"/>
<path opacity="0.4" d="M190.614 342.651C194.26 345.999 202.98 348.365 213.16 348.365C223.34 348.365 232.049 345.999 235.706 342.651H190.614Z" fill="white"/>
<path opacity="0.2" d="M217.844 358.626H208.432C208.106 358.623 207.789 358.517 207.526 358.323C207.264 358.129 207.07 357.857 206.972 357.546L205.652 353.495H220.657L219.337 357.546C219.239 357.863 219.04 358.14 218.771 358.334C218.502 358.529 218.177 358.632 217.844 358.626Z" fill="white"/>
<path opacity="0.2" d="M205.652 351.929H220.657L222.334 350.654H203.985L205.652 351.929Z" fill="white"/>
<path d="M212.59 4.84648C212.59 3.56432 212.59 2.28216 212.538 1" stroke="#263238" stroke-linecap="round" stroke-linejoin="round"/>
<path d="M212.538 43.1861C212.656 35.3124 212.705 27.4388 212.684 19.5652" stroke="#263238" stroke-linecap="round" stroke-linejoin="round"/>
<path d="M212.538 64.1174V57.446" stroke="#263238" stroke-linecap="round" stroke-linejoin="round"/>
<path d="M266.305 15.2704C267.349 12.9667 268.393 10.6734 269.531 8.41138" stroke="#263238" stroke-linecap="round" stroke-linejoin="round"/>
<path d="M251.271 50.9417C255.562 41.6643 259.175 32.1055 263.111 22.6821" stroke="#263238" stroke-linecap="round" stroke-linejoin="round"/>
<path d="M242.783 70.7161C244.628 66.4075 246.472 62.1093 248.317 57.8215" stroke="#263238" stroke-linecap="round" stroke-linejoin="round"/>
<path d="M235.141 64.1179L246.291 24.5586" stroke="#263238" stroke-linecap="round" stroke-linejoin="round"/>
<path d="M171.111 32.2305C174.911 44.0722 178.137 56.1328 181.979 67.7869" stroke="#263238" stroke-linecap="round" stroke-linejoin="round"/>
<path d="M163.834 8.41138C165.539 13.9709 167.237 19.5304 168.929 25.0898" stroke="#263238" stroke-linecap="round" stroke-linejoin="round"/>
<path d="M172.771 67.2448L174.337 70.716" stroke="#263238" stroke-linecap="round" stroke-linejoin="round"/>
<path d="M161.923 43.186L169.837 60.7297" stroke="#263238" stroke-linecap="round" stroke-linejoin="round"/>
<path d="M117.375 85.5392C121.405 90.1883 125.403 94.8687 129.297 99.6429" stroke="#263238" stroke-linecap="round" stroke-linejoin="round"/>
<path d="M99.3755 64.2844C103.552 69.5694 108.01 74.7085 112.436 79.8371" stroke="#263238" stroke-linecap="round" stroke-linejoin="round"/>
<path d="M91.086 54.5066L94.2181 58.2488" stroke="#263238" stroke-linecap="round" stroke-linejoin="round"/>
<path d="M101.432 84.8094L122.762 105.366" stroke="#263238" stroke-linecap="round" stroke-linejoin="round"/>
<path d="M103.698 152.336L110.192 153.994" stroke="#263238" stroke-linecap="round" stroke-linejoin="round"/>
<path d="M57.249 140.484L97.1205 150.7" stroke="#263238" stroke-linecap="round" stroke-linejoin="round"/>
<path d="M45.3992 137.461L49.711 138.566" stroke="#263238" stroke-linecap="round" stroke-linejoin="round"/>
<path d="M95.0219 138.879L110.192 145.727" stroke="#263238" stroke-linecap="round" stroke-linejoin="round"/>
<path d="M77.7953 131.113L88.2356 135.825" stroke="#263238" stroke-linecap="round" stroke-linejoin="round"/>
<path d="M342.384 59.1036L344.983 56.9563" stroke="#263238" stroke-linecap="round" stroke-linejoin="round"/>
<path d="M330.273 69.1316L336.328 64.1177" stroke="#263238" stroke-linecap="round" stroke-linejoin="round"/>
<path d="M305.352 89.7503L324.249 74.1143" stroke="#263238" stroke-linecap="round" stroke-linejoin="round"/>
<path d="M289.901 102.53L299.631 94.4827" stroke="#263238" stroke-linecap="round" stroke-linejoin="round"/>
<path d="M292.135 54.5066L271.118 83.4333" stroke="#263238" stroke-linecap="round" stroke-linejoin="round"/>
<path d="M375.438 121.043L380 119.667" stroke="#263238" stroke-linecap="round" stroke-linejoin="round"/>
<path d="M332.967 133.886C344.858 130.415 356.791 127.079 368.537 123.139" stroke="#263238" stroke-linecap="round" stroke-linejoin="round"/>
<path d="M311.867 140.328C316.419 138.837 321.002 137.43 325.596 136.054" stroke="#263238" stroke-linecap="round" stroke-linejoin="round"/>
<path d="M314.414 151.773L353.252 146.707" stroke="#263238" stroke-linecap="round" stroke-linejoin="round"/>
<path d="M370.406 219.082L376.19 220.937" stroke="#263238" stroke-linecap="round" stroke-linejoin="round"/>
<path d="M313.141 200.735C330.231 205.561 346.32 211.983 363.432 216.83" stroke="#263238" stroke-linecap="round" stroke-linejoin="round"/>
<path d="M339.701 197.608L362.492 200.735" stroke="#263238" stroke-linecap="round" stroke-linejoin="round"/>
<path d="M314.414 194.064L331.985 196.565" stroke="#263238" stroke-linecap="round" stroke-linejoin="round"/>
<path d="M330.805 289.871L333.739 293.53" stroke="#263238" stroke-linecap="round" stroke-linejoin="round"/>
<path d="M289.901 238.804C302.064 253.783 314.132 269.034 326.442 284.388" stroke="#263238" stroke-linecap="round" stroke-linejoin="round"/>
<path d="M307.879 246.945C311.407 250.378 314.933 253.811 318.455 257.244" stroke="#263238" stroke-linecap="round" stroke-linejoin="round"/>
<path d="M294.682 234.092L303.473 242.65" stroke="#263238" stroke-linecap="round" stroke-linejoin="round"/>
<path d="M105.347 290.434L103.03 293.624" stroke="#263238" stroke-linecap="round" stroke-linejoin="round"/>
<path d="M119.651 270.879C116.372 275.476 113.052 280.052 109.638 284.555" stroke="#263238" stroke-linecap="round" stroke-linejoin="round"/>
<path d="M139.675 243.401C134.257 250.353 129.141 257.546 124.015 264.739" stroke="#263238" stroke-linecap="round" stroke-linejoin="round"/>
<path d="M120.966 248.998L109.075 259.673" stroke="#263238" stroke-linecap="round" stroke-linejoin="round"/>
<path d="M133.265 237.959L126.238 244.266" stroke="#263238" stroke-linecap="round" stroke-linejoin="round"/>
<path d="M72.21 223.908L58.4601 230.756" stroke="#263238" stroke-linecap="round" stroke-linejoin="round"/>
<path d="M113.574 203.341C102.528 208.793 90.4595 214.411 78.8081 220.645" stroke="#263238" stroke-linecap="round" stroke-linejoin="round"/>
<path d="M110.192 186.652L80.1026 191.896" stroke="#263238" stroke-linecap="round" stroke-linejoin="round"/>
<path d="M300.706 119.667L318.455 108.858" stroke="#263238" stroke-linecap="round" stroke-linejoin="round"/>
<path d="M138.36 66.2649L149.186 83.4333" stroke="#263238" stroke-linecap="round" stroke-linejoin="round"/>
<path d="M280.347 265.218L287.04 279.437" stroke="#263238" stroke-linecap="round" stroke-linejoin="round"/>
<path d="M274.626 253.033C275.555 255.013 276.495 257.004 277.424 258.995" stroke="#263238" stroke-linecap="round" stroke-linejoin="round"/>
<path d="M337.08 229.975L340.838 232.185" stroke="#263238" stroke-linecap="round" stroke-linejoin="round"/>
<path d="M309.58 213.765L330.67 226.191" stroke="#263238" stroke-linecap="round" stroke-linejoin="round"/>
<path d="M361.061 177.354H371.084" stroke="#263238" stroke-linecap="round" stroke-linejoin="round"/>
<path d="M317.442 177.354C329.427 177.458 341.455 177.458 353.91 177.354" stroke="#263238" stroke-linecap="round" stroke-linejoin="round"/>
<path d="M62.4169 177.802L44.136 178.105" stroke="#263238" stroke-linecap="round" stroke-linejoin="round"/>
<path d="M98.0393 177.271C88.382 177.469 78.7247 177.51 69.057 177.635" stroke="#263238" stroke-linecap="round" stroke-linejoin="round"/>
<path d="M109.075 176.979L105.17 177.104" stroke="#263238" stroke-linecap="round" stroke-linejoin="round"/>
<path d="M91.6496 102.874L76.626 93.2528" stroke="#263238" stroke-linecap="round" stroke-linejoin="round"/>
<path d="M117.886 119.667L98.1855 107.065" stroke="#263238" stroke-linecap="round" stroke-linejoin="round"/>
</svg>
