<svg width="416" height="361" viewBox="0 0 416 361" fill="none" xmlns="http://www.w3.org/2000/svg">
<path d="M244.212 360H415V240.608H244.212L244.212 360Z" fill="#B0D2D3" stroke="#263238" stroke-linecap="round" stroke-linejoin="round"/>
<path d="M243.944 359.682H298.935V240.291H243.944L243.944 359.682Z" fill="#E59E53" stroke="#37455D" stroke-linecap="round" stroke-linejoin="round"/>
<path d="M379.272 264.934H404.711V252.763H379.272V264.934Z" stroke="#263238" stroke-linecap="round" stroke-linejoin="round"/>
<path d="M123.385 359.682H294.172V240.291H123.385L123.385 359.682Z" fill="#B0D2D3" stroke="#263238" stroke-linecap="round" stroke-linejoin="round"/>
<path d="M123.4 359.682H178.391L178.391 240.291H123.4L123.4 359.682Z" fill="#E59E53" stroke="#37455D" stroke-linecap="round" stroke-linejoin="round"/>
<path d="M257.414 264.934H282.853V252.763H257.414V264.934Z" stroke="#263238" stroke-linecap="round" stroke-linejoin="round"/>
<path d="M1.0002 359.682H171.788L171.788 240.291H1.0002L1.0002 359.682Z" fill="#B0D2D3" stroke="#263238" stroke-linecap="round" stroke-linejoin="round"/>
<path d="M0.999985 359.682H55.991L55.991 240.291H0.999985L0.999985 359.682Z" fill="#E59E53" stroke="#37455D" stroke-linecap="round" stroke-linejoin="round"/>
<path d="M21.1189 272.855H35.8719L35.8719 240.29H21.1189L21.1189 272.855Z" fill="white" stroke="#263238" stroke-linecap="round" stroke-linejoin="round"/>
<path d="M137.612 264.934H163.051V252.763H137.612V264.934Z" stroke="#263238" stroke-linecap="round" stroke-linejoin="round"/>
<path d="M185.806 240.196L356.594 240.196V120.804L185.806 120.804L185.806 240.196Z" fill="#B0D2D3" stroke="#263238" stroke-linecap="round" stroke-linejoin="round"/>
<path d="M185.443 240.157H240.434L240.434 120.766H185.443L185.443 240.157Z" fill="#E59E53" stroke="#37455D" stroke-linecap="round" stroke-linejoin="round"/>
<path d="M142.249 120.392L313.037 120.392V1.00002L142.249 1.00002L142.249 120.392Z" fill="#B0D2D3" stroke="#263238" stroke-linecap="round" stroke-linejoin="round"/>
<path d="M141.895 120.537H196.886L196.886 1.14504H141.895L141.895 120.537Z" fill="#E59E53" stroke="#37455D" stroke-linecap="round" stroke-linejoin="round"/>
<path d="M161.999 33.71H176.752V1.14532H161.999V33.71Z" fill="white" stroke="#263238" stroke-linecap="round" stroke-linejoin="round"/>
<path d="M61.0749 240.196L231.863 240.196L231.863 120.804L61.0749 120.804L61.0749 240.196Z" fill="#B0D2D3" stroke="#37455D" stroke-linecap="round" stroke-linejoin="round"/>
<path d="M60.8004 240.157H115.791L115.791 120.766H60.8004L60.8004 240.157Z" fill="#E59E53" stroke="#37455D" stroke-linecap="round" stroke-linejoin="round"/>
<path d="M80.9196 153.318H95.6725V120.754H80.9196V153.318Z" fill="white" stroke="#263238" stroke-linecap="round" stroke-linejoin="round"/>
<path d="M204.495 190.629H221.722V122.07H204.495V190.629Z" stroke="#263238" stroke-linecap="round" stroke-linejoin="round"/>
</svg>
