<svg width="198" height="384" viewBox="0 0 198 384" fill="none" xmlns="http://www.w3.org/2000/svg">
<path d="M18.1168 380.052L31.9377 369.536L48.8524 356.675L98.074 319.211L98.4373 319.467L98.4827 319.499L98.5128 319.531L145.326 353.752L162.03 365.959L175.965 376.151L124.659 127.845L121.346 127.854L117.125 127.857L60.1472 127.973L18.1168 380.052Z" fill="#B0D2D3" stroke="#263238" stroke-linecap="round" stroke-linejoin="round"/>
<path d="M31.855 371.374L48.7804 358.381L75.4154 127.78L103.31 127.31L66.8508 127.566L31.855 371.374Z" fill="white" stroke="#263238" stroke-linecap="round" stroke-linejoin="round"/>
<path d="M119.072 127.844L119.086 127.906L146.435 353.45L162.706 365.629L123.2 127.901L123.187 127.808L119.072 127.844Z" fill="white" stroke="#263238" stroke-linecap="round" stroke-linejoin="round"/>
<path d="M6.34962 100.243C6.34962 96.8372 0.676296 93.1833 1.01455 89.87C1.3528 86.5568 7.67191 84.0795 8.36379 80.8282C9.05566 77.5769 4.25867 72.7463 5.28879 69.5569C6.31891 66.3674 12.9763 65.3301 14.3446 62.2646C15.713 59.199 12.0076 53.5169 13.6835 50.6062C15.3594 47.6955 22.0936 48.0825 24.0462 45.3731C25.9989 42.6636 23.5696 36.3313 25.799 33.8386C28.0284 31.3459 34.5474 33.1264 37.0227 30.8814C39.4981 28.6364 38.4065 21.9324 41.1125 19.9507C43.8185 17.9689 49.7994 21.0809 52.6899 19.3933C55.5804 17.7057 55.8879 10.9398 58.9475 9.56187C62.0071 8.18392 67.1885 12.4881 70.3865 11.4507C73.5845 10.4134 75.2604 3.84879 78.5506 3.15208C81.8409 2.45536 85.9921 7.79685 89.3131 7.40979C92.6341 7.02272 95.6322 1 98.9993 1C102.366 1 105.411 7.06917 108.701 7.40979C111.991 7.7504 116.265 2.45536 119.463 3.15208C122.661 3.84879 124.476 10.4134 127.628 11.4507C130.779 12.4881 136.038 8.1994 139.067 9.56187C142.095 10.9243 142.511 17.7986 145.324 19.3469C148.138 20.8951 154.211 17.9225 156.902 19.9042C159.592 21.886 158.516 28.59 160.991 30.8349C163.467 33.0799 169.97 31.2994 172.215 33.7921C174.46 36.2848 172 42.6172 173.968 45.3266C175.936 48.0361 182.655 47.649 184.331 50.5597C186.006 53.4705 182.301 59.1371 183.669 62.2181C185.038 65.2992 191.695 66.3055 192.725 69.5259C193.755 72.7463 188.958 77.4685 189.65 80.7817C190.342 84.095 196.646 86.4484 196.984 89.8236C197.322 93.1988 191.664 96.7907 191.664 100.197C191.664 103.603 197.338 107.257 196.984 110.57C196.631 113.884 190.342 116.345 189.65 119.612C188.958 122.879 193.755 127.694 192.725 130.868C191.695 134.042 185.038 135.11 183.669 138.16C182.301 141.21 186.006 146.923 184.331 149.819C182.655 152.714 175.92 152.342 173.968 155.052C172.015 157.761 174.444 164.109 172.215 166.602C169.986 169.094 163.467 167.298 160.991 169.559C158.516 171.819 159.608 178.508 156.902 180.49C154.196 182.471 148.215 179.344 145.324 181.031C142.434 182.719 142.126 189.5 139.067 190.878C136.007 192.256 130.81 187.937 127.628 188.99C124.445 190.042 122.754 196.576 119.463 197.273C116.173 197.969 112.022 192.628 108.701 193.015C105.38 193.402 102.382 199.425 98.9993 199.425C95.6168 199.425 92.6033 193.371 89.3131 193.015C86.0229 192.659 81.7486 197.969 78.5506 197.273C75.3526 196.576 73.5384 190.011 70.3865 188.974C67.2346 187.937 61.9764 192.225 58.9475 190.863C55.9186 189.5 55.565 182.719 52.6899 181.031C49.8147 179.344 43.8031 182.456 41.1125 180.474C38.4219 178.492 39.4981 171.804 37.0227 169.636C34.5474 167.469 28.0284 169.172 25.799 166.679C23.5696 164.186 26.0142 157.854 24.0462 155.129C22.0782 152.404 15.3594 152.807 13.6835 149.896C12.0076 146.985 15.713 141.319 14.3446 138.238C12.9763 135.157 6.31891 134.15 5.28879 130.945C4.25867 127.74 9.05566 123.003 8.36379 119.689C7.67191 116.376 1.36814 114.023 1.02989 110.648C0.691639 107.272 6.34962 103.634 6.34962 100.243Z" fill="white" stroke="#263238" stroke-linecap="round" stroke-linejoin="round"/>
<path d="M97.8736 179.131C141.422 179.131 176.724 143.798 176.724 100.212C176.724 56.6267 141.422 21.2935 97.8736 21.2935C54.3256 21.2935 19.023 56.6267 19.023 100.212C19.023 143.798 54.3256 179.131 97.8736 179.131Z" fill="#B0D2D3" stroke="#263238" stroke-linecap="round" stroke-linejoin="round"/>
<path d="M167.438 116.416C176.507 78.7555 153.355 40.868 115.727 31.7918C78.0992 22.7156 40.2446 45.8876 31.1762 83.548C22.1078 121.208 45.2598 159.096 82.8875 168.172C120.515 177.248 158.37 154.076 167.438 116.416Z" fill="#E59E53"/>
<path d="M43.2084 103.525V79.1307H50.9215C52.1682 79.0764 53.4059 79.3647 54.5004 79.9645C55.43 80.5174 56.1553 81.3571 56.5676 82.3576C57.0482 83.5647 57.2791 84.8568 57.2463 86.1558C57.3242 87.5756 57.0149 88.9899 56.3516 90.2473C55.8088 91.201 54.9531 91.9375 53.9297 92.3317C52.8084 92.7641 51.6138 92.9738 50.4125 92.9493H48.1602V103.525H43.2084ZM48.1756 89.4599H49.9188C50.4944 89.4957 51.0691 89.3785 51.5849 89.1202C51.785 89.0005 51.9592 88.8418 52.097 88.6535C52.2347 88.4652 52.3334 88.2511 52.387 88.024C52.5435 87.393 52.6161 86.7441 52.603 86.094C52.6118 85.4671 52.555 84.8409 52.4333 84.2258C52.3477 83.7535 52.0822 83.3328 51.6928 83.0524C51.1498 82.7263 50.5196 82.5754 49.8879 82.6201H48.1756V89.4599Z" fill="#37455D"/>
<path d="M59.6373 103.525V79.1307H65.9466C67.3756 79.1007 68.8008 79.2881 70.1735 79.6865C71.2802 80.0099 72.24 80.7086 72.8885 81.6628C73.5809 82.8488 73.9083 84.213 73.8295 85.5844C73.8426 86.476 73.7599 87.3663 73.5827 88.2401C73.4295 88.9724 73.1189 89.6626 72.6725 90.2627C72.1965 90.8725 71.5688 91.3463 70.8522 91.6368L74.2306 103.525H69.1399L66.3477 92.4706H64.6045V103.525H59.6373ZM64.6045 89.5216H66.0392C66.6941 89.5558 67.347 89.423 67.9366 89.1356C68.3972 88.8702 68.7475 88.4485 68.9239 87.9467C69.1229 87.3074 69.2167 86.6399 69.2016 85.9704C69.2607 85.0683 69.0456 84.1694 68.5846 83.392C68.3026 83.0683 67.9456 82.8188 67.5448 82.6654C67.1441 82.5119 66.7118 82.4593 66.286 82.512H64.6045V89.5216Z" fill="#37455D"/>
<path d="M83.795 103.85C82.3198 103.928 80.8515 103.597 79.5528 102.892C78.5155 102.259 77.7262 101.289 77.316 100.144C76.8288 98.7671 76.5988 97.3121 76.6372 95.8519V86.7579C76.5975 85.3026 76.8276 83.8525 77.316 82.4811C77.7234 81.3427 78.5143 80.3818 79.5528 79.7637C80.8906 79.1482 82.3457 78.8295 83.8182 78.8295C85.2906 78.8295 86.7456 79.1482 88.0835 79.7637C89.1227 80.385 89.9176 81.3441 90.3357 82.4811C90.8181 83.8486 91.0481 85.2925 91.0145 86.7424V95.8364C91.0435 97.2961 90.8136 98.7493 90.3357 100.129C89.9193 101.275 89.1248 102.244 88.0835 102.877C86.7701 103.589 85.2866 103.925 83.795 103.85ZM83.795 100.268C84.3062 100.314 84.8153 100.159 85.2142 99.8353C85.5249 99.5113 85.734 99.1034 85.8158 98.6619C85.9088 98.1525 85.9553 97.6357 85.9547 97.1179V85.5844C85.9566 85.0666 85.9101 84.5497 85.8158 84.0405C85.7304 83.6047 85.5215 83.2028 85.2142 82.8825C84.8153 82.5593 84.3062 82.4042 83.795 82.4502C83.3034 82.4107 82.8159 82.5659 82.4375 82.8825C82.1302 83.2028 81.9213 83.6047 81.8359 84.0405C81.7361 84.5491 81.6844 85.0661 81.6816 85.5844V97.1179C81.681 97.6357 81.7275 98.1525 81.8204 98.6619C81.8906 99.104 82.0953 99.5138 82.4066 99.8353C82.7961 100.154 83.2937 100.309 83.795 100.268Z" fill="#37455D"/>
<path d="M94.3312 103.525V79.1307H100.286C101.933 79.0613 103.577 79.3346 105.114 79.9335C106.221 80.423 107.099 81.318 107.567 82.4348C108.088 83.825 108.329 85.3048 108.277 86.7888V95.6666C108.327 97.1857 108.086 98.7003 107.567 100.129C107.109 101.256 106.244 102.171 105.145 102.692C103.647 103.316 102.03 103.6 100.409 103.525H94.3312ZM99.283 100.067H100.347C101.031 100.123 101.715 99.9666 102.307 99.6192C102.512 99.4686 102.684 99.277 102.811 99.0563C102.939 98.8357 103.019 98.591 103.047 98.3377C103.163 97.6336 103.214 96.9204 103.201 96.207V86.1557C103.221 85.4706 103.154 84.7857 103.001 84.1177C102.953 83.8882 102.86 83.6704 102.728 83.4769C102.595 83.2835 102.426 83.1182 102.229 82.9906C101.635 82.7012 100.976 82.5734 100.317 82.62H99.283V100.067Z" fill="#37455D"/>
<path d="M118.427 103.85C116.933 103.936 115.445 103.61 114.123 102.908C113.101 102.283 112.335 101.314 111.963 100.175C111.528 98.7658 111.32 97.2961 111.346 95.8212V79.1309H116.252V96.5005C116.252 97.0951 116.298 97.6888 116.391 98.2761C116.457 98.7913 116.665 99.2778 116.992 99.6811C117.392 100.031 117.904 100.223 118.435 100.223C118.965 100.223 119.478 100.031 119.877 99.6811C120.205 99.28 120.409 98.7916 120.463 98.2761C120.543 97.6876 120.585 97.0944 120.587 96.5005V79.1309H125.492V95.8212C125.528 97.2966 125.319 98.7678 124.875 100.175C124.504 101.31 123.745 102.278 122.731 102.908C121.408 103.606 119.921 103.932 118.427 103.85Z" fill="#37455D"/>
<path d="M135.72 103.85C134.223 103.928 132.734 103.574 131.431 102.831C130.39 102.167 129.611 101.163 129.226 99.9896C128.784 98.6239 128.57 97.1946 128.593 95.7592V86.9894C128.564 85.5132 128.778 84.0424 129.226 82.6354C129.612 81.4706 130.392 80.477 131.431 79.8254C132.74 79.1008 134.226 78.7584 135.72 78.8373C137.139 78.7664 138.553 79.0642 139.823 79.7019C140.794 80.2542 141.541 81.1278 141.937 82.1723C142.364 83.3601 142.573 84.6155 142.554 85.8778V87.9312H137.741V85.6925C137.741 85.1764 137.71 84.6608 137.648 84.1485C137.606 83.7072 137.434 83.2883 137.155 82.9442C136.967 82.7722 136.744 82.6421 136.502 82.5622C136.26 82.4824 136.004 82.4547 135.751 82.481C135.489 82.4569 135.226 82.4869 134.976 82.5693C134.727 82.6516 134.497 82.7845 134.301 82.9597C133.996 83.3141 133.798 83.7477 133.73 84.2103C133.652 84.773 133.616 85.3406 133.622 85.9087V96.9944C133.612 97.5951 133.664 98.1952 133.776 98.7853C133.855 99.2345 134.077 99.6461 134.409 99.9588C134.791 100.255 135.269 100.398 135.751 100.36C135.999 100.385 136.25 100.357 136.487 100.277C136.724 100.197 136.941 100.067 137.124 99.897C137.408 99.5364 137.584 99.1029 137.633 98.6464C137.702 98.0983 137.738 97.5467 137.741 96.9944V94.6166H142.554V96.5003C142.576 97.7817 142.372 99.057 141.952 100.268C141.569 101.342 140.835 102.255 139.87 102.861C138.609 103.579 137.169 103.922 135.72 103.85Z" fill="#37455D"/>
<path d="M147.876 103.526V82.8364H144.112V79.1309H156.545V82.8364H152.843V103.526H147.876Z" fill="#37455D"/>
<path d="M63.2472 144.472C62.6989 144.187 62.1819 143.845 61.7045 143.453C61.0748 142.984 60.4818 142.468 59.9305 141.909C59.3556 141.333 58.8389 140.702 58.3879 140.025H58.1257H57.8171C56.3402 140.101 54.8712 139.765 53.5749 139.052C52.5352 138.421 51.745 137.451 51.3381 136.304C50.8499 134.927 50.6198 133.472 50.6593 132.012V122.918C50.6196 121.462 50.8497 120.012 51.3381 118.641C51.7417 117.504 52.534 116.547 53.5749 115.939C54.8801 115.256 56.3467 114.941 57.8171 115.028C59.3065 114.957 60.7875 115.288 62.1056 115.985C63.1471 116.597 63.9434 117.552 64.3579 118.687C64.8403 120.055 65.0703 121.499 65.0366 122.949V132.012C65.0425 133.05 64.9338 134.085 64.7127 135.1C64.5339 135.969 64.1824 136.793 63.6791 137.524C63.1722 138.189 62.5101 138.719 61.7508 139.068L62.5684 139.917C62.836 140.19 63.1193 140.448 63.4169 140.689C63.6641 140.915 63.9328 141.117 64.219 141.291L63.2472 144.472ZM57.8171 136.412C58.3301 136.45 58.8382 136.29 59.2364 135.964C59.5501 135.642 59.7597 135.234 59.838 134.791C59.9316 134.282 59.9781 133.765 59.9768 133.247V121.713C59.9791 121.196 59.9326 120.679 59.838 120.169C59.7562 119.728 59.547 119.32 59.2364 118.996C58.8324 118.683 58.3272 118.529 57.8171 118.564C57.3168 118.53 56.8219 118.685 56.4288 118.996C56.1175 119.318 55.9128 119.727 55.8426 120.169C55.7479 120.679 55.7015 121.196 55.7037 121.713V133.247C55.7024 133.765 55.7489 134.282 55.8426 134.791C55.9088 135.234 56.1141 135.645 56.4288 135.964C56.8159 136.288 57.3138 136.449 57.8171 136.412Z" fill="#37455D"/>
<path d="M75.2488 139.994C73.7536 140.076 72.2646 139.745 70.9449 139.037C69.9268 138.411 69.1661 137.442 68.8006 136.304C68.3543 134.897 68.1457 133.425 68.1836 131.95V115.275H73.0891V132.645C73.0913 133.239 73.1326 133.832 73.2126 134.42C73.2783 134.94 73.4865 135.432 73.8142 135.841C73.9996 136.03 74.2241 136.176 74.4719 136.269C74.7197 136.363 74.9848 136.401 75.2488 136.381C75.5177 136.403 75.7881 136.366 76.0413 136.273C76.2944 136.18 76.5241 136.032 76.7143 135.841C77.0371 135.43 77.24 134.939 77.3005 134.42C77.3754 133.831 77.4114 133.238 77.4085 132.645V115.275H82.3141V132.012C82.3519 133.487 82.1434 134.959 81.697 136.366C81.3315 137.504 80.5708 138.473 79.5527 139.098C78.2269 139.785 76.7383 140.095 75.2488 139.994Z" fill="#37455D"/>
<path d="M84.3967 139.732L89.1172 115.352H94.6243L99.2522 139.732H94.6243L93.7451 134.374H89.9039L88.9629 139.732H84.3967ZM90.4438 131.332H93.2977L91.7551 121.482L90.4438 131.332Z" fill="#37455D"/>
<path d="M101.612 139.731V115.275H106.564V136.288H112.287V139.731H101.612Z" fill="#37455D"/>
<path d="M114.509 139.731V115.275H119.522V139.731H114.509Z" fill="#37455D"/>
<path d="M125.461 139.731V118.981H121.697V115.275H134.162V118.981H130.46V139.731H125.461Z" fill="#37455D"/>
<path d="M139.577 139.732V130.066L134.825 115.352H139.453L142.076 123.921L144.513 115.352H149.017L144.39 130.066V139.732H139.577Z" fill="#37455D"/>
<path d="M63.4785 55.678L65.1446 60.7885H70.4975L66.1627 63.9382L67.8133 69.0333L63.4785 65.8836L59.1437 69.0333L60.7943 63.9382L56.4595 60.7885H61.8279L63.4785 55.678Z" fill="#37455D"/>
<path d="M82.2524 55.678L83.903 60.7885H89.2714L84.9211 63.9382L86.5871 69.0333L82.2524 65.8836L77.9176 69.0333L79.5682 63.9382L75.2334 60.7885H80.5863L82.2524 55.678Z" fill="#37455D"/>
<path d="M101.011 55.678L102.677 60.7885H108.03L103.695 63.9382L105.346 69.0333L101.011 65.8836L96.6761 69.0333L98.3421 63.9382L93.9919 60.7885H99.3603L101.011 55.678Z" fill="#37455D"/>
<path d="M119.785 55.678L121.435 60.7885H126.804L122.469 63.9382L124.119 69.0333L119.785 65.8836L115.45 69.0333L117.1 63.9382L112.766 60.7885H118.134L119.785 55.678Z" fill="#37455D"/>
<path d="M138.558 55.678L140.209 60.7885H145.562L141.227 63.9382L142.893 69.0333L138.558 65.8836L134.208 69.0333L135.874 63.9382L131.539 60.7885H136.892L138.558 55.678Z" fill="#37455D"/>
</svg>
